<svg width="514" height="511" viewBox="0 0 514 511" fill="none" xmlns="http://www.w3.org/2000/svg">
<mask id="path-1-outside-1_2515_324" maskUnits="userSpaceOnUse" x="0" y="-1" width="514" height="512" fill="black">
<rect fill="white" y="-1" width="514" height="512"/>
<path fill-rule="evenodd" clip-rule="evenodd" d="M132.884 10.0706C132.434 9.92502 130.881 8.51961 129.433 6.94649C127.531 4.87996 126.327 3.90412 125.093 3.42883C124.153 3.06725 122.911 2.30211 122.332 1.72855C120.948 0.357118 119.92 0.78147 116.314 4.21188C114.77 5.68084 112.608 7.5161 111.508 8.29082C110.124 9.2655 108.699 10.6723 106.881 12.858C104.964 15.1615 103.422 16.6622 101.185 18.4012C97.7417 21.079 90.3298 28.6499 88.8138 31.0386C88.1531 32.0801 86.0352 34.2148 82.3512 37.5521C71.0272 47.8119 62.054 56.4222 47.6877 70.8146C39.5477 78.969 31.9524 86.5446 30.8093 87.6492C29.6662 88.7538 22.9257 95.3459 15.831 102.299C4.06331 113.832 2.83384 115.124 1.82011 117.028C0.693288 119.144 0.711512 119.66 1.97489 121.338C2.36241 121.853 2.77856 122.766 2.89948 123.369C3.06821 124.209 4.04716 125.26 7.10161 127.884C9.29213 129.764 11.2461 131.509 11.4441 131.761C11.6425 132.013 16.7972 137.338 22.8992 143.594C30.9419 151.84 34.2618 155.022 34.9666 155.161C35.6032 155.287 35.9368 155.578 35.9319 156.005C35.9214 156.924 36.644 157.834 37.9382 158.534C39.666 159.468 50.4292 169.853 50.6117 170.763C50.7001 171.204 52.3814 173.326 54.348 175.479C58.7549 180.305 59.1213 180.636 60.0403 180.619C60.5226 180.611 61.1876 181.192 61.9625 182.3C62.614 183.232 64.1538 184.951 65.3839 186.122C66.6144 187.293 68.6929 189.266 70.0032 190.507C71.3134 191.747 72.5518 193.251 72.7548 193.849C73.0037 194.581 74.0058 195.61 75.8285 197.004C77.3164 198.142 78.5575 199.26 78.5872 199.488C78.6171 199.716 80.3266 201.708 82.3864 203.915C84.4463 206.122 87.2185 209.172 88.5464 210.694C89.8747 212.216 92.5303 214.961 94.4475 216.795C96.3651 218.629 98.0943 220.337 98.2907 220.591C100.12 222.957 108.223 231.024 109.364 231.615C110.156 232.025 111.358 232.789 112.036 233.313C112.714 233.838 113.98 234.588 114.85 234.981C116.217 235.598 116.45 235.864 116.558 236.934C116.743 238.769 117.836 239.568 120.424 239.763C121.991 239.881 123.426 239.612 124.868 238.93C126.886 237.977 127.389 237.516 134.334 230.258C138.368 226.042 142.788 221.521 144.157 220.21C145.652 218.78 146.785 217.417 146.993 216.799C147.245 216.049 147.632 215.632 148.419 215.264C149.918 214.561 161.147 203.584 163.641 200.382C164.768 198.935 165.939 197.158 166.242 196.432C166.741 195.24 166.901 195.105 167.895 195.045C170.223 194.905 176.335 188.67 180.496 182.192C181.84 180.099 182.081 179.884 185.001 178.183C187.507 176.723 188.754 175.709 191.639 172.786C196.183 168.184 208.391 155.521 212.03 151.635C213.569 149.991 216.328 147.362 218.161 145.793C220.061 144.165 222.602 141.624 224.076 139.875C225.623 138.04 226.914 136.757 227.294 136.676C227.987 136.528 237.508 126.933 238.869 125.009C240.79 122.294 240.8 121.838 238.974 120.029C238.05 119.113 237.33 118.043 237.374 117.651C237.421 117.223 236.269 115.662 234.492 113.745C231.222 110.22 216.079 94.7341 210.273 88.9799C208.239 86.9635 203.244 82.0148 199.173 77.9829C195.102 73.9515 189.608 68.3152 186.964 65.4581C183.429 61.6405 181.944 60.2678 181.358 60.2779C180.829 60.2872 180.207 59.7796 179.505 58.7666C178.598 57.4564 174.943 53.7207 170.943 50.0138C169.775 48.9312 164.634 43.3371 160.363 38.5016C159.026 36.988 154.699 32.329 150.747 28.1479C145.137 22.2131 143.422 20.5926 142.926 20.7589C142.427 20.9256 142.34 20.8232 142.524 20.2847C142.704 19.7575 141.705 18.5189 138.231 14.9661C135.741 12.419 133.335 10.2158 132.884 10.0706Z"/>
<path fill-rule="evenodd" clip-rule="evenodd" d="M269.22 145.176C268.77 145.03 267.217 143.625 265.769 142.052C263.867 139.985 262.663 139.009 261.428 138.534C260.489 138.173 259.247 137.407 258.668 136.834C257.284 135.462 256.256 135.887 252.65 139.317C251.106 140.786 248.943 142.621 247.844 143.396C246.46 144.371 245.035 145.778 243.216 147.963C241.299 150.267 239.758 151.768 237.521 153.507C234.077 156.184 226.665 163.755 225.149 166.144C224.489 167.185 222.371 169.32 218.687 172.657C207.363 182.917 198.39 191.527 184.023 205.92C175.883 214.074 168.288 221.65 167.145 222.754C166.002 223.859 159.261 230.451 152.167 237.404C140.399 248.937 139.169 250.229 138.156 252.133C137.029 254.249 137.047 254.766 138.31 256.443C138.698 256.958 139.114 257.872 139.235 258.474C139.404 259.314 140.383 260.365 143.437 262.989C145.628 264.869 147.582 266.614 147.78 266.866C147.978 267.118 153.133 272.443 159.235 278.699C167.277 286.945 170.597 290.127 171.302 290.267C171.939 290.392 172.272 290.684 172.267 291.11C172.257 292.029 172.979 292.94 174.274 293.639C176.002 294.573 186.765 304.958 186.947 305.868C187.036 306.309 188.717 308.431 190.684 310.584C195.09 315.41 195.457 315.741 196.376 315.725C196.858 315.716 197.523 316.297 198.298 317.405C198.949 318.337 200.489 320.057 201.719 321.228C202.95 322.398 205.028 324.371 206.339 325.612C207.649 326.853 208.887 328.356 209.09 328.954C209.339 329.686 210.341 330.715 212.164 332.109C213.652 333.247 214.893 334.365 214.923 334.593C214.953 334.821 216.662 336.814 218.722 339.02C220.782 341.227 223.554 344.277 224.882 345.799C226.21 347.321 228.866 350.066 230.783 351.901C232.701 353.734 234.43 355.443 234.626 355.696C236.456 358.062 244.559 366.129 245.7 366.72C246.492 367.13 247.694 367.895 248.372 368.419C249.049 368.943 250.316 369.693 251.186 370.086C252.552 370.703 252.785 370.97 252.893 372.04C253.079 373.874 254.172 374.673 256.76 374.868C258.327 374.986 259.761 374.717 261.204 374.036C263.221 373.083 263.725 372.621 270.669 365.364C274.703 361.148 279.124 356.626 280.493 355.316C281.987 353.885 283.12 352.522 283.328 351.904C283.58 351.154 283.967 350.737 284.754 350.369C286.253 349.667 297.482 338.69 299.977 335.487C301.104 334.04 302.274 332.263 302.578 331.537C303.076 330.345 303.237 330.211 304.23 330.15C306.558 330.01 312.671 323.775 316.831 317.298C318.176 315.204 318.417 314.99 321.337 313.288C323.843 311.828 325.09 310.814 327.975 307.892C332.519 303.289 344.727 290.626 348.365 286.741C349.905 285.097 352.664 282.468 354.496 280.898C356.397 279.271 358.938 276.729 360.411 274.981C361.958 273.145 363.249 271.862 363.629 271.781C364.323 271.633 373.843 262.038 375.204 260.115C377.126 257.399 377.135 256.943 375.31 255.134C374.386 254.219 373.665 253.148 373.709 252.756C373.757 252.328 372.605 250.767 370.827 248.85C367.558 245.325 352.414 229.839 346.609 224.085C344.574 222.069 339.579 217.12 335.508 213.088C331.437 209.057 325.943 203.42 323.299 200.563C319.765 196.746 318.28 195.373 317.694 195.383C317.165 195.392 316.543 194.885 315.841 193.872C314.933 192.562 311.279 188.826 307.279 185.119C306.11 184.036 300.97 178.442 296.698 173.607C295.362 172.093 291.035 167.434 287.083 163.253C281.473 157.318 279.758 155.698 279.261 155.864C278.762 156.031 278.675 155.929 278.859 155.39C279.039 154.863 278.04 153.624 274.566 150.071C272.076 147.524 269.67 145.321 269.22 145.176Z"/>
<path fill-rule="evenodd" clip-rule="evenodd" d="M132.884 280.281C132.434 280.136 130.881 278.73 129.433 277.157C127.531 275.09 126.327 274.115 125.093 273.639C124.153 273.278 122.911 272.513 122.332 271.939C120.948 270.568 119.92 270.992 116.314 274.422C114.77 275.891 112.608 277.727 111.508 278.501C110.124 279.476 108.699 280.883 106.881 283.069C104.964 285.372 103.422 286.873 101.185 288.612C97.7417 291.29 90.3298 298.86 88.8138 301.249C88.1531 302.291 86.0352 304.425 82.3512 307.763C71.0272 318.022 62.054 326.633 47.6877 341.025C39.5477 349.18 31.9524 356.755 30.8093 357.86C29.6662 358.964 22.9257 365.556 15.831 372.509C4.06331 384.042 2.83384 385.334 1.82011 387.238C0.693288 389.354 0.711512 389.871 1.97489 391.548C2.36241 392.063 2.77856 392.977 2.89948 393.579C3.06821 394.419 4.04716 395.471 7.10161 398.094C9.29213 399.975 11.2461 401.72 11.4441 401.972C11.6425 402.223 16.7972 407.548 22.8992 413.805C30.9419 422.051 34.2618 425.233 34.9666 425.372C35.6032 425.498 35.9368 425.789 35.9319 426.215C35.9214 427.134 36.644 428.045 37.9382 428.744C39.666 429.678 50.4292 440.064 50.6117 440.973C50.7001 441.414 52.3814 443.536 54.348 445.689C58.7549 450.516 59.1213 450.846 60.0403 450.83C60.5226 450.822 61.1876 451.403 61.9625 452.51C62.614 453.442 64.1538 455.162 65.3839 456.333C66.6144 457.503 68.6929 459.476 70.0032 460.717C71.3134 461.958 72.5518 463.462 72.7548 464.059C73.0037 464.792 74.0058 465.821 75.8285 467.215C77.3164 468.352 78.5575 469.47 78.5872 469.698C78.6171 469.926 80.3266 471.919 82.3864 474.125C84.4463 476.332 87.2185 479.382 88.5464 480.904C89.8747 482.426 92.5303 485.172 94.4475 487.006C96.3651 488.84 98.0943 490.548 98.2907 490.801C100.12 493.168 108.223 501.234 109.364 501.825C110.156 502.235 111.358 503 112.036 503.524C112.714 504.048 113.98 504.798 114.85 505.191C116.217 505.808 116.45 506.075 116.558 507.145C116.743 508.979 117.836 509.778 120.424 509.973C121.991 510.091 123.426 509.822 124.868 509.141C126.886 508.188 127.389 507.727 134.334 500.469C138.368 496.253 142.788 491.731 144.157 490.421C145.652 488.991 146.785 487.627 146.993 487.009C147.245 486.26 147.632 485.843 148.419 485.474C149.918 484.772 161.147 473.795 163.641 470.593C164.768 469.146 165.939 467.368 166.242 466.642C166.741 465.45 166.901 465.316 167.895 465.256C170.223 465.115 176.335 458.881 180.496 452.403C181.84 450.31 182.081 450.095 185.001 448.393C187.507 446.933 188.754 445.92 191.639 442.997C196.183 438.395 208.391 425.732 212.03 421.846C213.569 420.202 216.328 417.573 218.161 416.004C220.061 414.376 222.602 411.834 224.076 410.086C225.623 408.251 226.914 406.968 227.294 406.886C227.987 406.738 237.508 397.143 238.869 395.22C240.79 392.504 240.8 392.049 238.974 390.24C238.05 389.324 237.33 388.254 237.374 387.862C237.421 387.434 236.269 385.872 234.492 383.955C231.222 380.43 216.079 364.945 210.273 359.19C208.239 357.174 203.244 352.225 199.173 348.193C195.102 344.162 189.608 338.526 186.964 335.669C183.429 331.851 181.944 330.478 181.358 330.488C180.829 330.498 180.207 329.99 179.505 328.977C178.598 327.667 174.943 323.931 170.943 320.224C169.775 319.142 164.634 313.548 160.363 308.712C159.026 307.199 154.699 302.54 150.747 298.358C145.137 292.424 143.422 290.803 142.926 290.969C142.427 291.136 142.34 291.034 142.524 290.495C142.704 289.968 141.705 288.729 138.231 285.177C135.741 282.63 133.335 280.426 132.884 280.281Z"/>
<path fill-rule="evenodd" clip-rule="evenodd" d="M405.557 280.281C405.107 280.136 403.554 278.73 402.107 277.157C400.205 275.09 399 274.115 397.766 273.639C396.826 273.278 395.584 272.513 395.005 271.939C393.621 270.568 392.593 270.992 388.987 274.422C387.444 275.891 385.281 277.727 384.181 278.501C382.797 279.476 381.372 280.883 379.554 283.069C377.637 285.372 376.095 286.873 373.859 288.612C370.415 291.29 363.003 298.86 361.487 301.249C360.826 302.291 358.708 304.425 355.024 307.763C343.7 318.022 334.727 326.633 320.361 341.025C312.221 349.18 304.626 356.755 303.482 357.86C302.339 358.964 295.599 365.556 288.504 372.509C276.736 384.042 275.507 385.334 274.493 387.238C273.366 389.354 273.385 389.871 274.648 391.548C275.035 392.063 275.452 392.977 275.573 393.579C275.741 394.419 276.72 395.471 279.775 398.094C281.965 399.975 283.919 401.72 284.117 401.972C284.316 402.223 289.47 407.548 295.572 413.805C303.615 422.051 306.935 425.233 307.64 425.372C308.276 425.498 308.61 425.789 308.605 426.215C308.594 427.134 309.317 428.045 310.611 428.744C312.339 429.678 323.102 440.064 323.285 440.973C323.373 441.414 325.054 443.536 327.021 445.689C331.428 450.516 331.794 450.846 332.713 450.83C333.196 450.822 333.861 451.403 334.636 452.51C335.287 453.442 336.827 455.162 338.057 456.333C339.287 457.503 341.366 459.476 342.676 460.717C343.987 461.958 345.225 463.462 345.428 464.059C345.677 464.792 346.679 465.821 348.502 467.215C349.989 468.352 351.231 469.47 351.26 469.698C351.29 469.926 353 471.919 355.06 474.125C357.119 476.332 359.892 479.382 361.22 480.904C362.548 482.426 365.203 485.172 367.121 487.006C369.038 488.84 370.767 490.548 370.964 490.801C372.793 493.168 380.897 501.234 382.037 501.825C382.829 502.235 384.031 503 384.709 503.524C385.387 504.048 386.653 504.798 387.523 505.191C388.89 505.808 389.123 506.075 389.231 507.145C389.416 508.979 390.509 509.778 393.098 509.973C394.664 510.091 396.099 509.822 397.542 509.141C399.559 508.188 400.062 507.727 407.007 500.469C411.041 496.253 415.461 491.731 416.831 490.421C418.325 488.991 419.458 487.627 419.666 487.009C419.918 486.26 420.305 485.843 421.092 485.474C422.591 484.772 433.82 473.795 436.315 470.593C437.441 469.146 438.612 467.368 438.915 466.642C439.414 465.45 439.574 465.316 440.568 465.256C442.896 465.115 449.008 458.881 453.169 452.403C454.513 450.31 454.755 450.095 457.674 448.393C460.18 446.933 461.427 445.92 464.312 442.997C468.856 438.395 481.064 425.732 484.703 421.846C486.243 420.202 489.001 417.573 490.834 416.004C492.734 414.376 495.275 411.834 496.749 410.086C498.296 408.251 499.587 406.968 499.967 406.886C500.661 406.738 510.181 397.143 511.542 395.22C513.463 392.504 513.473 392.049 511.647 390.24C510.723 389.324 510.003 388.254 510.047 387.862C510.094 387.434 508.942 385.872 507.165 383.955C503.896 380.43 488.752 364.945 482.947 359.19C480.912 357.174 475.917 352.225 471.846 348.193C467.775 344.162 462.281 338.526 459.637 335.669C456.102 331.851 454.617 330.478 454.032 330.488C453.503 330.498 452.88 329.99 452.178 328.977C451.271 327.667 447.616 323.931 443.616 320.224C442.448 319.142 437.307 313.548 433.036 308.712C431.699 307.199 427.372 302.54 423.42 298.358C417.811 292.424 416.095 290.803 415.599 290.969C415.1 291.136 415.013 291.034 415.197 290.495C415.377 289.968 414.378 288.729 410.904 285.177C408.414 282.63 406.008 280.426 405.557 280.281Z"/>
<path fill-rule="evenodd" clip-rule="evenodd" d="M405.557 10.0706C405.107 9.92502 403.554 8.51961 402.107 6.94649C400.205 4.87996 399 3.90412 397.766 3.42883C396.826 3.06725 395.584 2.30211 395.005 1.72855C393.621 0.357118 392.593 0.78147 388.987 4.21188C387.444 5.68084 385.281 7.5161 384.181 8.29082C382.797 9.2655 381.372 10.6723 379.554 12.858C377.637 15.1615 376.095 16.6622 373.859 18.4012C370.415 21.079 363.003 28.6499 361.487 31.0386C360.826 32.0801 358.708 34.2148 355.024 37.5521C343.7 47.8119 334.727 56.4222 320.361 70.8146C312.221 78.969 304.626 86.5446 303.482 87.6492C302.339 88.7538 295.599 95.3459 288.504 102.299C276.736 113.832 275.507 115.124 274.493 117.028C273.366 119.144 273.385 119.66 274.648 121.338C275.035 121.853 275.452 122.766 275.573 123.369C275.741 124.209 276.72 125.26 279.775 127.884C281.965 129.764 283.919 131.509 284.117 131.761C284.316 132.013 289.47 137.338 295.572 143.594C303.615 151.84 306.935 155.022 307.64 155.161C308.276 155.287 308.61 155.578 308.605 156.005C308.594 156.924 309.317 157.834 310.611 158.534C312.339 159.468 323.102 169.853 323.285 170.763C323.373 171.204 325.054 173.326 327.021 175.479C331.428 180.305 331.794 180.636 332.713 180.619C333.196 180.611 333.861 181.192 334.636 182.3C335.287 183.232 336.827 184.951 338.057 186.122C339.287 187.293 341.366 189.266 342.676 190.507C343.987 191.747 345.225 193.251 345.428 193.849C345.677 194.581 346.679 195.61 348.502 197.004C349.989 198.142 351.231 199.26 351.26 199.488C351.29 199.716 353 201.708 355.06 203.915C357.119 206.122 359.892 209.172 361.22 210.694C362.548 212.216 365.203 214.961 367.121 216.795C369.038 218.629 370.767 220.337 370.964 220.591C372.793 222.957 380.897 231.024 382.037 231.615C382.829 232.025 384.031 232.789 384.709 233.313C385.387 233.838 386.653 234.588 387.523 234.981C388.89 235.598 389.123 235.864 389.231 236.934C389.416 238.769 390.509 239.568 393.098 239.763C394.664 239.881 396.099 239.612 397.542 238.93C399.559 237.977 400.062 237.516 407.007 230.258C411.041 226.042 415.461 221.521 416.831 220.21C418.325 218.78 419.458 217.417 419.666 216.799C419.918 216.049 420.305 215.632 421.092 215.264C422.591 214.561 433.82 203.584 436.315 200.382C437.441 198.935 438.612 197.158 438.915 196.432C439.414 195.24 439.574 195.105 440.568 195.045C442.896 194.905 449.008 188.67 453.169 182.192C454.513 180.099 454.755 179.884 457.674 178.183C460.18 176.723 461.427 175.709 464.312 172.786C468.856 168.184 481.064 155.521 484.703 151.635C486.243 149.991 489.001 147.362 490.834 145.793C492.734 144.165 495.275 141.624 496.749 139.875C498.296 138.04 499.587 136.757 499.967 136.676C500.661 136.528 510.181 126.933 511.542 125.009C513.463 122.294 513.473 121.838 511.647 120.029C510.723 119.113 510.003 118.043 510.047 117.651C510.094 117.223 508.942 115.662 507.165 113.745C503.896 110.22 488.752 94.7341 482.947 88.9799C480.912 86.9635 475.917 82.0148 471.846 77.9829C467.775 73.9515 462.281 68.3152 459.637 65.4581C456.102 61.6405 454.617 60.2678 454.032 60.2779C453.503 60.2872 452.88 59.7796 452.178 58.7666C451.271 57.4564 447.616 53.7207 443.616 50.0138C442.448 48.9312 437.307 43.3371 433.036 38.5016C431.699 36.988 427.372 32.329 423.42 28.1479C417.811 22.2131 416.095 20.5926 415.599 20.7589C415.1 20.9256 415.013 20.8232 415.197 20.2847C415.377 19.7575 414.378 18.5189 410.904 14.9661C408.414 12.419 406.008 10.2158 405.557 10.0706Z"/>
</mask>
<path fill-rule="evenodd" clip-rule="evenodd" d="M132.884 10.0706C132.434 9.92502 130.881 8.51961 129.433 6.94649C127.531 4.87996 126.327 3.90412 125.093 3.42883C124.153 3.06725 122.911 2.30211 122.332 1.72855C120.948 0.357118 119.92 0.78147 116.314 4.21188C114.77 5.68084 112.608 7.5161 111.508 8.29082C110.124 9.2655 108.699 10.6723 106.881 12.858C104.964 15.1615 103.422 16.6622 101.185 18.4012C97.7417 21.079 90.3298 28.6499 88.8138 31.0386C88.1531 32.0801 86.0352 34.2148 82.3512 37.5521C71.0272 47.8119 62.054 56.4222 47.6877 70.8146C39.5477 78.969 31.9524 86.5446 30.8093 87.6492C29.6662 88.7538 22.9257 95.3459 15.831 102.299C4.06331 113.832 2.83384 115.124 1.82011 117.028C0.693288 119.144 0.711512 119.66 1.97489 121.338C2.36241 121.853 2.77856 122.766 2.89948 123.369C3.06821 124.209 4.04716 125.26 7.10161 127.884C9.29213 129.764 11.2461 131.509 11.4441 131.761C11.6425 132.013 16.7972 137.338 22.8992 143.594C30.9419 151.84 34.2618 155.022 34.9666 155.161C35.6032 155.287 35.9368 155.578 35.9319 156.005C35.9214 156.924 36.644 157.834 37.9382 158.534C39.666 159.468 50.4292 169.853 50.6117 170.763C50.7001 171.204 52.3814 173.326 54.348 175.479C58.7549 180.305 59.1213 180.636 60.0403 180.619C60.5226 180.611 61.1876 181.192 61.9625 182.3C62.614 183.232 64.1538 184.951 65.3839 186.122C66.6144 187.293 68.6929 189.266 70.0032 190.507C71.3134 191.747 72.5518 193.251 72.7548 193.849C73.0037 194.581 74.0058 195.61 75.8285 197.004C77.3164 198.142 78.5575 199.26 78.5872 199.488C78.6171 199.716 80.3266 201.708 82.3864 203.915C84.4463 206.122 87.2185 209.172 88.5464 210.694C89.8747 212.216 92.5303 214.961 94.4475 216.795C96.3651 218.629 98.0943 220.337 98.2907 220.591C100.12 222.957 108.223 231.024 109.364 231.615C110.156 232.025 111.358 232.789 112.036 233.313C112.714 233.838 113.98 234.588 114.85 234.981C116.217 235.598 116.45 235.864 116.558 236.934C116.743 238.769 117.836 239.568 120.424 239.763C121.991 239.881 123.426 239.612 124.868 238.93C126.886 237.977 127.389 237.516 134.334 230.258C138.368 226.042 142.788 221.521 144.157 220.21C145.652 218.78 146.785 217.417 146.993 216.799C147.245 216.049 147.632 215.632 148.419 215.264C149.918 214.561 161.147 203.584 163.641 200.382C164.768 198.935 165.939 197.158 166.242 196.432C166.741 195.24 166.901 195.105 167.895 195.045C170.223 194.905 176.335 188.67 180.496 182.192C181.84 180.099 182.081 179.884 185.001 178.183C187.507 176.723 188.754 175.709 191.639 172.786C196.183 168.184 208.391 155.521 212.03 151.635C213.569 149.991 216.328 147.362 218.161 145.793C220.061 144.165 222.602 141.624 224.076 139.875C225.623 138.04 226.914 136.757 227.294 136.676C227.987 136.528 237.508 126.933 238.869 125.009C240.79 122.294 240.8 121.838 238.974 120.029C238.05 119.113 237.33 118.043 237.374 117.651C237.421 117.223 236.269 115.662 234.492 113.745C231.222 110.22 216.079 94.7341 210.273 88.9799C208.239 86.9635 203.244 82.0148 199.173 77.9829C195.102 73.9515 189.608 68.3152 186.964 65.4581C183.429 61.6405 181.944 60.2678 181.358 60.2779C180.829 60.2872 180.207 59.7796 179.505 58.7666C178.598 57.4564 174.943 53.7207 170.943 50.0138C169.775 48.9312 164.634 43.3371 160.363 38.5016C159.026 36.988 154.699 32.329 150.747 28.1479C145.137 22.2131 143.422 20.5926 142.926 20.7589C142.427 20.9256 142.34 20.8232 142.524 20.2847C142.704 19.7575 141.705 18.5189 138.231 14.9661C135.741 12.419 133.335 10.2158 132.884 10.0706Z" stroke="url(#paint0_radial_2515_324)" stroke-opacity="0.15" stroke-width="2" mask="url(#path-1-outside-1_2515_324)"/>
<path fill-rule="evenodd" clip-rule="evenodd" d="M269.22 145.176C268.77 145.03 267.217 143.625 265.769 142.052C263.867 139.985 262.663 139.009 261.428 138.534C260.489 138.173 259.247 137.407 258.668 136.834C257.284 135.462 256.256 135.887 252.65 139.317C251.106 140.786 248.943 142.621 247.844 143.396C246.46 144.371 245.035 145.778 243.216 147.963C241.299 150.267 239.758 151.768 237.521 153.507C234.077 156.184 226.665 163.755 225.149 166.144C224.489 167.185 222.371 169.32 218.687 172.657C207.363 182.917 198.39 191.527 184.023 205.92C175.883 214.074 168.288 221.65 167.145 222.754C166.002 223.859 159.261 230.451 152.167 237.404C140.399 248.937 139.169 250.229 138.156 252.133C137.029 254.249 137.047 254.766 138.31 256.443C138.698 256.958 139.114 257.872 139.235 258.474C139.404 259.314 140.383 260.365 143.437 262.989C145.628 264.869 147.582 266.614 147.78 266.866C147.978 267.118 153.133 272.443 159.235 278.699C167.277 286.945 170.597 290.127 171.302 290.267C171.939 290.392 172.272 290.684 172.267 291.11C172.257 292.029 172.979 292.94 174.274 293.639C176.002 294.573 186.765 304.958 186.947 305.868C187.036 306.309 188.717 308.431 190.684 310.584C195.09 315.41 195.457 315.741 196.376 315.725C196.858 315.716 197.523 316.297 198.298 317.405C198.949 318.337 200.489 320.057 201.719 321.228C202.95 322.398 205.028 324.371 206.339 325.612C207.649 326.853 208.887 328.356 209.09 328.954C209.339 329.686 210.341 330.715 212.164 332.109C213.652 333.247 214.893 334.365 214.923 334.593C214.953 334.821 216.662 336.814 218.722 339.02C220.782 341.227 223.554 344.277 224.882 345.799C226.21 347.321 228.866 350.066 230.783 351.901C232.701 353.734 234.43 355.443 234.626 355.696C236.456 358.062 244.559 366.129 245.7 366.72C246.492 367.13 247.694 367.895 248.372 368.419C249.049 368.943 250.316 369.693 251.186 370.086C252.552 370.703 252.785 370.97 252.893 372.04C253.079 373.874 254.172 374.673 256.76 374.868C258.327 374.986 259.761 374.717 261.204 374.036C263.221 373.083 263.725 372.621 270.669 365.364C274.703 361.148 279.124 356.626 280.493 355.316C281.987 353.885 283.12 352.522 283.328 351.904C283.58 351.154 283.967 350.737 284.754 350.369C286.253 349.667 297.482 338.69 299.977 335.487C301.104 334.04 302.274 332.263 302.578 331.537C303.076 330.345 303.237 330.211 304.23 330.15C306.558 330.01 312.671 323.775 316.831 317.298C318.176 315.204 318.417 314.99 321.337 313.288C323.843 311.828 325.09 310.814 327.975 307.892C332.519 303.289 344.727 290.626 348.365 286.741C349.905 285.097 352.664 282.468 354.496 280.898C356.397 279.271 358.938 276.729 360.411 274.981C361.958 273.145 363.249 271.862 363.629 271.781C364.323 271.633 373.843 262.038 375.204 260.115C377.126 257.399 377.135 256.943 375.31 255.134C374.386 254.219 373.665 253.148 373.709 252.756C373.757 252.328 372.605 250.767 370.827 248.85C367.558 245.325 352.414 229.839 346.609 224.085C344.574 222.069 339.579 217.12 335.508 213.088C331.437 209.057 325.943 203.42 323.299 200.563C319.765 196.746 318.28 195.373 317.694 195.383C317.165 195.392 316.543 194.885 315.841 193.872C314.933 192.562 311.279 188.826 307.279 185.119C306.11 184.036 300.97 178.442 296.698 173.607C295.362 172.093 291.035 167.434 287.083 163.253C281.473 157.318 279.758 155.698 279.261 155.864C278.762 156.031 278.675 155.929 278.859 155.39C279.039 154.863 278.04 153.624 274.566 150.071C272.076 147.524 269.67 145.321 269.22 145.176Z" stroke="url(#paint1_radial_2515_324)" stroke-opacity="0.15" stroke-width="2" mask="url(#path-1-outside-1_2515_324)"/>
<path fill-rule="evenodd" clip-rule="evenodd" d="M132.884 280.281C132.434 280.136 130.881 278.73 129.433 277.157C127.531 275.09 126.327 274.115 125.093 273.639C124.153 273.278 122.911 272.513 122.332 271.939C120.948 270.568 119.92 270.992 116.314 274.422C114.77 275.891 112.608 277.727 111.508 278.501C110.124 279.476 108.699 280.883 106.881 283.069C104.964 285.372 103.422 286.873 101.185 288.612C97.7417 291.29 90.3298 298.86 88.8138 301.249C88.1531 302.291 86.0352 304.425 82.3512 307.763C71.0272 318.022 62.054 326.633 47.6877 341.025C39.5477 349.18 31.9524 356.755 30.8093 357.86C29.6662 358.964 22.9257 365.556 15.831 372.509C4.06331 384.042 2.83384 385.334 1.82011 387.238C0.693288 389.354 0.711512 389.871 1.97489 391.548C2.36241 392.063 2.77856 392.977 2.89948 393.579C3.06821 394.419 4.04716 395.471 7.10161 398.094C9.29213 399.975 11.2461 401.72 11.4441 401.972C11.6425 402.223 16.7972 407.548 22.8992 413.805C30.9419 422.051 34.2618 425.233 34.9666 425.372C35.6032 425.498 35.9368 425.789 35.9319 426.215C35.9214 427.134 36.644 428.045 37.9382 428.744C39.666 429.678 50.4292 440.064 50.6117 440.973C50.7001 441.414 52.3814 443.536 54.348 445.689C58.7549 450.516 59.1213 450.846 60.0403 450.83C60.5226 450.822 61.1876 451.403 61.9625 452.51C62.614 453.442 64.1538 455.162 65.3839 456.333C66.6144 457.503 68.6929 459.476 70.0032 460.717C71.3134 461.958 72.5518 463.462 72.7548 464.059C73.0037 464.792 74.0058 465.821 75.8285 467.215C77.3164 468.352 78.5575 469.47 78.5872 469.698C78.6171 469.926 80.3266 471.919 82.3864 474.125C84.4463 476.332 87.2185 479.382 88.5464 480.904C89.8747 482.426 92.5303 485.172 94.4475 487.006C96.3651 488.84 98.0943 490.548 98.2907 490.801C100.12 493.168 108.223 501.234 109.364 501.825C110.156 502.235 111.358 503 112.036 503.524C112.714 504.048 113.98 504.798 114.85 505.191C116.217 505.808 116.45 506.075 116.558 507.145C116.743 508.979 117.836 509.778 120.424 509.973C121.991 510.091 123.426 509.822 124.868 509.141C126.886 508.188 127.389 507.727 134.334 500.469C138.368 496.253 142.788 491.731 144.157 490.421C145.652 488.991 146.785 487.627 146.993 487.009C147.245 486.26 147.632 485.843 148.419 485.474C149.918 484.772 161.147 473.795 163.641 470.593C164.768 469.146 165.939 467.368 166.242 466.642C166.741 465.45 166.901 465.316 167.895 465.256C170.223 465.115 176.335 458.881 180.496 452.403C181.84 450.31 182.081 450.095 185.001 448.393C187.507 446.933 188.754 445.92 191.639 442.997C196.183 438.395 208.391 425.732 212.03 421.846C213.569 420.202 216.328 417.573 218.161 416.004C220.061 414.376 222.602 411.834 224.076 410.086C225.623 408.251 226.914 406.968 227.294 406.886C227.987 406.738 237.508 397.143 238.869 395.22C240.79 392.504 240.8 392.049 238.974 390.24C238.05 389.324 237.33 388.254 237.374 387.862C237.421 387.434 236.269 385.872 234.492 383.955C231.222 380.43 216.079 364.945 210.273 359.19C208.239 357.174 203.244 352.225 199.173 348.193C195.102 344.162 189.608 338.526 186.964 335.669C183.429 331.851 181.944 330.478 181.358 330.488C180.829 330.498 180.207 329.99 179.505 328.977C178.598 327.667 174.943 323.931 170.943 320.224C169.775 319.142 164.634 313.548 160.363 308.712C159.026 307.199 154.699 302.54 150.747 298.358C145.137 292.424 143.422 290.803 142.926 290.969C142.427 291.136 142.34 291.034 142.524 290.495C142.704 289.968 141.705 288.729 138.231 285.177C135.741 282.63 133.335 280.426 132.884 280.281Z" stroke="url(#paint2_radial_2515_324)" stroke-opacity="0.15" stroke-width="2" mask="url(#path-1-outside-1_2515_324)"/>
<path fill-rule="evenodd" clip-rule="evenodd" d="M405.557 280.281C405.107 280.136 403.554 278.73 402.107 277.157C400.205 275.09 399 274.115 397.766 273.639C396.826 273.278 395.584 272.513 395.005 271.939C393.621 270.568 392.593 270.992 388.987 274.422C387.444 275.891 385.281 277.727 384.181 278.501C382.797 279.476 381.372 280.883 379.554 283.069C377.637 285.372 376.095 286.873 373.859 288.612C370.415 291.29 363.003 298.86 361.487 301.249C360.826 302.291 358.708 304.425 355.024 307.763C343.7 318.022 334.727 326.633 320.361 341.025C312.221 349.18 304.626 356.755 303.482 357.86C302.339 358.964 295.599 365.556 288.504 372.509C276.736 384.042 275.507 385.334 274.493 387.238C273.366 389.354 273.385 389.871 274.648 391.548C275.035 392.063 275.452 392.977 275.573 393.579C275.741 394.419 276.72 395.471 279.775 398.094C281.965 399.975 283.919 401.72 284.117 401.972C284.316 402.223 289.47 407.548 295.572 413.805C303.615 422.051 306.935 425.233 307.64 425.372C308.276 425.498 308.61 425.789 308.605 426.215C308.594 427.134 309.317 428.045 310.611 428.744C312.339 429.678 323.102 440.064 323.285 440.973C323.373 441.414 325.054 443.536 327.021 445.689C331.428 450.516 331.794 450.846 332.713 450.83C333.196 450.822 333.861 451.403 334.636 452.51C335.287 453.442 336.827 455.162 338.057 456.333C339.287 457.503 341.366 459.476 342.676 460.717C343.987 461.958 345.225 463.462 345.428 464.059C345.677 464.792 346.679 465.821 348.502 467.215C349.989 468.352 351.231 469.47 351.26 469.698C351.29 469.926 353 471.919 355.06 474.125C357.119 476.332 359.892 479.382 361.22 480.904C362.548 482.426 365.203 485.172 367.121 487.006C369.038 488.84 370.767 490.548 370.964 490.801C372.793 493.168 380.897 501.234 382.037 501.825C382.829 502.235 384.031 503 384.709 503.524C385.387 504.048 386.653 504.798 387.523 505.191C388.89 505.808 389.123 506.075 389.231 507.145C389.416 508.979 390.509 509.778 393.098 509.973C394.664 510.091 396.099 509.822 397.542 509.141C399.559 508.188 400.062 507.727 407.007 500.469C411.041 496.253 415.461 491.731 416.831 490.421C418.325 488.991 419.458 487.627 419.666 487.009C419.918 486.26 420.305 485.843 421.092 485.474C422.591 484.772 433.82 473.795 436.315 470.593C437.441 469.146 438.612 467.368 438.915 466.642C439.414 465.45 439.574 465.316 440.568 465.256C442.896 465.115 449.008 458.881 453.169 452.403C454.513 450.31 454.755 450.095 457.674 448.393C460.18 446.933 461.427 445.92 464.312 442.997C468.856 438.395 481.064 425.732 484.703 421.846C486.243 420.202 489.001 417.573 490.834 416.004C492.734 414.376 495.275 411.834 496.749 410.086C498.296 408.251 499.587 406.968 499.967 406.886C500.661 406.738 510.181 397.143 511.542 395.22C513.463 392.504 513.473 392.049 511.647 390.24C510.723 389.324 510.003 388.254 510.047 387.862C510.094 387.434 508.942 385.872 507.165 383.955C503.896 380.43 488.752 364.945 482.947 359.19C480.912 357.174 475.917 352.225 471.846 348.193C467.775 344.162 462.281 338.526 459.637 335.669C456.102 331.851 454.617 330.478 454.032 330.488C453.503 330.498 452.88 329.99 452.178 328.977C451.271 327.667 447.616 323.931 443.616 320.224C442.448 319.142 437.307 313.548 433.036 308.712C431.699 307.199 427.372 302.54 423.42 298.358C417.811 292.424 416.095 290.803 415.599 290.969C415.1 291.136 415.013 291.034 415.197 290.495C415.377 289.968 414.378 288.729 410.904 285.177C408.414 282.63 406.008 280.426 405.557 280.281Z" stroke="url(#paint3_radial_2515_324)" stroke-opacity="0.15" stroke-width="2" mask="url(#path-1-outside-1_2515_324)"/>
<path fill-rule="evenodd" clip-rule="evenodd" d="M405.557 10.0706C405.107 9.92502 403.554 8.51961 402.107 6.94649C400.205 4.87996 399 3.90412 397.766 3.42883C396.826 3.06725 395.584 2.30211 395.005 1.72855C393.621 0.357118 392.593 0.78147 388.987 4.21188C387.444 5.68084 385.281 7.5161 384.181 8.29082C382.797 9.2655 381.372 10.6723 379.554 12.858C377.637 15.1615 376.095 16.6622 373.859 18.4012C370.415 21.079 363.003 28.6499 361.487 31.0386C360.826 32.0801 358.708 34.2148 355.024 37.5521C343.7 47.8119 334.727 56.4222 320.361 70.8146C312.221 78.969 304.626 86.5446 303.482 87.6492C302.339 88.7538 295.599 95.3459 288.504 102.299C276.736 113.832 275.507 115.124 274.493 117.028C273.366 119.144 273.385 119.66 274.648 121.338C275.035 121.853 275.452 122.766 275.573 123.369C275.741 124.209 276.72 125.26 279.775 127.884C281.965 129.764 283.919 131.509 284.117 131.761C284.316 132.013 289.47 137.338 295.572 143.594C303.615 151.84 306.935 155.022 307.64 155.161C308.276 155.287 308.61 155.578 308.605 156.005C308.594 156.924 309.317 157.834 310.611 158.534C312.339 159.468 323.102 169.853 323.285 170.763C323.373 171.204 325.054 173.326 327.021 175.479C331.428 180.305 331.794 180.636 332.713 180.619C333.196 180.611 333.861 181.192 334.636 182.3C335.287 183.232 336.827 184.951 338.057 186.122C339.287 187.293 341.366 189.266 342.676 190.507C343.987 191.747 345.225 193.251 345.428 193.849C345.677 194.581 346.679 195.61 348.502 197.004C349.989 198.142 351.231 199.26 351.26 199.488C351.29 199.716 353 201.708 355.06 203.915C357.119 206.122 359.892 209.172 361.22 210.694C362.548 212.216 365.203 214.961 367.121 216.795C369.038 218.629 370.767 220.337 370.964 220.591C372.793 222.957 380.897 231.024 382.037 231.615C382.829 232.025 384.031 232.789 384.709 233.313C385.387 233.838 386.653 234.588 387.523 234.981C388.89 235.598 389.123 235.864 389.231 236.934C389.416 238.769 390.509 239.568 393.098 239.763C394.664 239.881 396.099 239.612 397.542 238.93C399.559 237.977 400.062 237.516 407.007 230.258C411.041 226.042 415.461 221.521 416.831 220.21C418.325 218.78 419.458 217.417 419.666 216.799C419.918 216.049 420.305 215.632 421.092 215.264C422.591 214.561 433.82 203.584 436.315 200.382C437.441 198.935 438.612 197.158 438.915 196.432C439.414 195.24 439.574 195.105 440.568 195.045C442.896 194.905 449.008 188.67 453.169 182.192C454.513 180.099 454.755 179.884 457.674 178.183C460.18 176.723 461.427 175.709 464.312 172.786C468.856 168.184 481.064 155.521 484.703 151.635C486.243 149.991 489.001 147.362 490.834 145.793C492.734 144.165 495.275 141.624 496.749 139.875C498.296 138.04 499.587 136.757 499.967 136.676C500.661 136.528 510.181 126.933 511.542 125.009C513.463 122.294 513.473 121.838 511.647 120.029C510.723 119.113 510.003 118.043 510.047 117.651C510.094 117.223 508.942 115.662 507.165 113.745C503.896 110.22 488.752 94.7341 482.947 88.9799C480.912 86.9635 475.917 82.0148 471.846 77.9829C467.775 73.9515 462.281 68.3152 459.637 65.4581C456.102 61.6405 454.617 60.2678 454.032 60.2779C453.503 60.2872 452.88 59.7796 452.178 58.7666C451.271 57.4564 447.616 53.7207 443.616 50.0138C442.448 48.9312 437.307 43.3371 433.036 38.5016C431.699 36.988 427.372 32.329 423.42 28.1479C417.811 22.2131 416.095 20.5926 415.599 20.7589C415.1 20.9256 415.013 20.8232 415.197 20.2847C415.377 19.7575 414.378 18.5189 410.904 14.9661C408.414 12.419 406.008 10.2158 405.557 10.0706Z" stroke="url(#paint4_radial_2515_324)" stroke-opacity="0.15" stroke-width="2" mask="url(#path-1-outside-1_2515_324)"/>
<defs>
<radialGradient id="paint0_radial_2515_324" cx="0" cy="0" r="1" gradientUnits="userSpaceOnUse" gradientTransform="translate(257 255.5) rotate(90) scale(326.935 328.862)">
<stop stop-color="white"/>
<stop offset="1" stop-color="#999999"/>
</radialGradient>
<radialGradient id="paint1_radial_2515_324" cx="0" cy="0" r="1" gradientUnits="userSpaceOnUse" gradientTransform="translate(257 255.5) rotate(90) scale(326.935 328.862)">
<stop stop-color="white"/>
<stop offset="1" stop-color="#999999"/>
</radialGradient>
<radialGradient id="paint2_radial_2515_324" cx="0" cy="0" r="1" gradientUnits="userSpaceOnUse" gradientTransform="translate(257 255.5) rotate(90) scale(326.935 328.862)">
<stop stop-color="white"/>
<stop offset="1" stop-color="#999999"/>
</radialGradient>
<radialGradient id="paint3_radial_2515_324" cx="0" cy="0" r="1" gradientUnits="userSpaceOnUse" gradientTransform="translate(257 255.5) rotate(90) scale(326.935 328.862)">
<stop stop-color="white"/>
<stop offset="1" stop-color="#999999"/>
</radialGradient>
<radialGradient id="paint4_radial_2515_324" cx="0" cy="0" r="1" gradientUnits="userSpaceOnUse" gradientTransform="translate(257 255.5) rotate(90) scale(326.935 328.862)">
<stop stop-color="white"/>
<stop offset="1" stop-color="#999999"/>
</radialGradient>
</defs>
</svg>
