<svg width="160" height="111" viewBox="0 0 160 111" fill="none" xmlns="http://www.w3.org/2000/svg">
<g filter="url(#filter0_d_2515_258)">
<path fill-rule="evenodd" clip-rule="evenodd" d="M50.9805 40.0395C50.8072 40.0676 49.9442 40.0801 49.0626 40.0671C47.9045 40.0501 47.2687 40.0705 46.7709 40.1405C46.392 40.1938 45.807 40.2374 45.4708 40.2374C44.6669 40.2374 44.4926 40.3726 44.4507 41.0283C44.4329 41.3091 44.3426 41.6816 44.2503 41.8561C44.1341 42.0758 44.1325 42.3397 44.2449 42.7131C44.3633 43.1066 44.3554 43.3901 44.2154 43.7605C44.0001 44.3307 44.0663 45.7272 44.3261 46.0915C44.4394 46.2503 44.4499 46.6467 44.3581 47.3009C44.0762 49.3121 43.9935 50.9508 44.0392 53.6312C44.065 55.1499 44.0793 56.5639 44.0711 56.7734C44.0628 56.9829 44.0372 58.2254 44.0144 59.5347C43.9767 61.7062 43.9983 61.9413 44.2619 62.2136C44.5548 62.5163 44.7115 62.5629 45.5702 62.6028C45.8336 62.615 46.2222 62.662 46.4339 62.7071C46.7291 62.7701 47.3216 62.7777 48.9776 62.74C50.165 62.7128 51.244 62.6949 51.3753 62.7001C51.5067 62.7052 54.5645 62.7256 58.1705 62.7452C62.9233 62.771 64.8202 62.7609 65.0656 62.7085C65.2874 62.6613 65.4697 62.6576 65.5932 62.6979C65.8595 62.785 66.3363 62.8032 66.9172 62.7486C67.6927 62.6757 73.8626 62.6494 74.1823 62.7177C74.3372 62.7508 75.4475 62.7935 76.6497 62.8126C79.3441 62.8556 79.5474 62.8525 79.8096 62.7657C79.9473 62.7202 80.3107 62.7129 80.8604 62.7447C81.3227 62.7715 82.274 62.7897 82.9745 62.7852C83.6749 62.7806 84.8569 62.7725 85.6011 62.7671C86.3453 62.7617 87.1457 62.7876 87.3799 62.8247C87.6667 62.8702 88.2594 62.8735 89.1973 62.8349C89.9629 62.8034 90.6511 62.7929 90.7265 62.8115C90.8021 62.8301 91.8826 62.858 93.1276 62.8735C94.3726 62.889 96.0718 62.9174 96.9036 62.9367C97.7353 62.9559 99.3113 62.9666 100.406 62.9604C101.5 62.9542 102.503 62.9537 102.634 62.9592C103.859 63.011 108.577 63.0144 109.082 62.9639C109.432 62.9288 110.005 62.8889 110.356 62.875C110.706 62.8613 111.294 62.814 111.662 62.7701C112.239 62.7011 112.385 62.7044 112.73 62.7946C113.322 62.9491 113.873 62.9225 114.682 62.7006C115.172 62.5663 115.509 62.408 115.729 62.2104C116.035 61.934 116.046 61.8441 115.936 60.5203C115.872 59.7512 115.831 58.9178 115.845 58.6681C115.859 58.3955 115.789 58.1627 115.668 58.0856C115.522 57.992 115.512 57.9171 115.632 57.8096C115.862 57.6047 115.906 55.5352 115.692 55.0039C115.595 54.7639 115.414 54.4888 115.29 54.3927C115.085 54.2349 115.092 54.2074 115.363 54.1096C115.998 53.8804 115.946 52.7296 115.256 51.7371C115.033 51.4164 115.04 51.3739 115.389 50.9437C115.689 50.5745 115.754 50.3639 115.736 49.8226C115.707 48.9701 115.541 46.6519 115.459 45.9504C115.424 45.6537 115.455 45.1516 115.527 44.8346C115.602 44.5059 115.595 44.0322 115.511 43.7318C115.422 43.4164 115.421 43.1765 115.508 43.1337C115.666 43.0554 115.619 41.2738 115.45 40.9674C115.212 40.5349 115.082 40.4914 114.021 40.4914C113.485 40.4914 112.962 40.458 112.859 40.4172C112.748 40.3727 111.956 40.3334 110.878 40.3189C108.895 40.2922 99.9578 40.2473 96.5852 40.2472C95.4032 40.2472 92.502 40.2473 90.138 40.2475C87.774 40.2478 84.5264 40.2298 82.921 40.2077C80.7756 40.1782 79.9419 40.1874 79.7747 40.2427C79.6238 40.2927 79.2943 40.3029 78.7935 40.2732C78.1459 40.2347 75.9897 40.224 73.7415 40.248C73.0848 40.2551 69.9521 40.2083 67.2943 40.1519C66.4625 40.1342 63.8402 40.0994 61.467 40.0746C58.0982 40.0395 57.1251 40.0469 57.0296 40.1085C56.9336 40.1704 56.8783 40.1689 56.7739 40.1014C56.6717 40.0353 56.0184 40.0121 53.9682 40.0017C52.4984 39.9943 51.1539 40.0113 50.9805 40.0395Z" fill="url(#paint0_linear_2515_258)" shape-rendering="crispEdges"/>
</g>
<defs>
<filter id="filter0_d_2515_258" x="0.799999" y="0.799999" width="158.4" height="109.4" filterUnits="userSpaceOnUse" color-interpolation-filters="sRGB">
<feFlood flood-opacity="0" result="BackgroundImageFix"/>
<feColorMatrix in="SourceAlpha" type="matrix" values="0 0 0 0 0 0 0 0 0 0 0 0 0 0 0 0 0 0 127 0" result="hardAlpha"/>
<feOffset dy="4"/>
<feGaussianBlur stdDeviation="21.6"/>
<feComposite in2="hardAlpha" operator="out"/>
<feColorMatrix type="matrix" values="0 0 0 0 0.843137 0 0 0 0 0.109804 0 0 0 0 0.137255 0 0 0 0.25 0"/>
<feBlend mode="normal" in2="BackgroundImageFix" result="effect1_dropShadow_2515_258"/>
<feBlend mode="normal" in="SourceGraphic" in2="effect1_dropShadow_2515_258" result="shape"/>
</filter>
<linearGradient id="paint0_linear_2515_258" x1="79.122" y1="42.6082" x2="79.122" y2="60.866" gradientUnits="userSpaceOnUse">
<stop stop-color="#D71C23"/>
<stop offset="1" stop-color="#D71C23" stop-opacity="0.55"/>
</linearGradient>
</defs>
</svg>
