<svg width="26" height="26" viewBox="0 0 26 26" fill="none" xmlns="http://www.w3.org/2000/svg">
<path fill-rule="evenodd" clip-rule="evenodd" d="M2.52075 0.0445985C2.45815 0.076387 2.14652 0.0905233 1.82817 0.0758848C1.40996 0.0566538 1.18037 0.0796878 1.00061 0.158836C0.863795 0.219112 0.652537 0.26841 0.531129 0.26841C0.240829 0.26841 0.177882 0.421181 0.162764 1.16244C0.156325 1.47982 0.123731 1.90089 0.09039 2.09822C0.0484258 2.3465 0.047851 2.64487 0.0884355 3.06695C0.131204 3.51177 0.12833 3.83231 0.0778007 4.25095C2.33278e-05 4.89554 0.0239371 6.4742 0.117753 6.88602C0.158682 7.06556 0.162476 7.51361 0.129307 8.25321C0.0275012 10.5268 -0.00233356 12.3792 0.0141647 15.4092C0.0234773 17.126 0.0286509 18.7244 0.0256617 18.9612C0.0226725 19.198 0.0134174 20.6027 0.00519699 22.0827C-0.00842699 24.5375 -0.000609003 24.8032 0.0945864 25.111C0.200359 25.4532 0.256924 25.5059 0.566999 25.551C0.662137 25.5648 0.802458 25.6179 0.878914 25.6689C0.985491 25.7401 1.19945 25.7487 1.79747 25.706C2.22625 25.6753 2.61588 25.6551 2.66331 25.661C2.71074 25.6668 3.81497 25.6898 5.11712 25.7119C6.8334 25.7411 7.51839 25.7297 7.60703 25.6705C7.68711 25.6171 7.75293 25.6129 7.79754 25.6585C7.89371 25.7569 8.06588 25.7775 8.27564 25.7158C8.55571 25.6334 10.7837 25.6037 10.8991 25.6809C10.9551 25.7182 11.356 25.7665 11.7902 25.7881C12.7632 25.8367 12.8366 25.8333 12.9312 25.7352C12.981 25.6837 13.1122 25.6755 13.3107 25.7114C13.4776 25.7417 13.8212 25.7622 14.0741 25.7571C14.327 25.752 14.7539 25.7428 15.0226 25.7367C15.2914 25.7306 15.5804 25.7599 15.665 25.8018C15.7685 25.8532 15.9826 25.857 16.3213 25.8134C16.5977 25.7777 16.8462 25.7659 16.8735 25.7869C16.9008 25.8079 17.2909 25.8395 17.7405 25.857C18.1901 25.8745 18.8037 25.9066 19.1041 25.9284C19.4044 25.9502 19.9735 25.9622 20.3687 25.9553C20.7639 25.9482 21.1261 25.9477 21.1735 25.9539C21.6159 26.0125 23.3195 26.0163 23.5017 25.9592C23.6281 25.9195 23.8351 25.8744 23.9617 25.8587C24.0883 25.8432 24.3005 25.7898 24.4333 25.7401C24.642 25.6621 24.6946 25.6659 24.8192 25.7678C25.0328 25.9425 25.232 25.9124 25.5241 25.6616C25.7009 25.5097 25.8229 25.3308 25.9021 25.1074C26.0128 24.7949 26.0168 24.6933 25.977 23.1968C25.9539 22.3275 25.939 21.3853 25.9439 21.103C25.9492 20.7949 25.9238 20.5318 25.8801 20.4446C25.8272 20.3388 25.8237 20.2541 25.8672 20.1326C25.9501 19.901 25.9661 17.5615 25.8888 16.9609C25.8539 16.6896 25.7885 16.3787 25.7435 16.27C25.6696 16.0916 25.6722 16.0606 25.77 15.95C25.9993 15.6909 25.9806 14.39 25.7314 13.2681C25.6508 12.9055 25.6534 12.8575 25.7795 12.3711C25.8878 11.9537 25.9113 11.7157 25.9046 11.1038C25.8941 10.1401 25.8343 7.5195 25.8046 6.72658C25.7921 6.39111 25.8032 5.82351 25.8293 5.46522C25.8564 5.09359 25.8539 4.55814 25.8234 4.21851C25.7914 3.86202 25.791 3.59085 25.8222 3.54241C25.8793 3.45394 25.8623 1.43992 25.8015 1.09362C25.7156 0.604665 25.6684 0.555439 25.2855 0.555439C25.0917 0.555439 24.9028 0.517695 24.8659 0.471627C24.8256 0.421325 24.5395 0.376907 24.1502 0.360475C23.4342 0.330265 20.207 0.279604 18.9891 0.27946C18.5623 0.27946 17.5146 0.279604 16.6609 0.279819C15.8073 0.280106 14.6345 0.259799 14.0548 0.234756C13.2801 0.201388 12.979 0.211865 12.9187 0.274366C12.8642 0.330839 12.7452 0.342392 12.5643 0.308809C12.3305 0.265324 11.5518 0.253197 10.74 0.280393C10.5028 0.288358 9.3716 0.235473 8.41182 0.171681C8.11146 0.151661 7.16451 0.112409 6.30752 0.0843521C5.09102 0.0445985 4.73962 0.0529941 4.70512 0.122671C4.67046 0.192634 4.65051 0.190912 4.6128 0.114634C4.5759 0.0399343 4.33998 0.013671 3.59963 0.00197458C3.06887 -0.00642104 2.58335 0.0127382 2.52075 0.0445985Z" fill="white" fill-opacity="0.05"/>
<path d="M21.1735 25.9539C21.6159 26.0125 23.3195 26.0163 23.5017 25.9592C23.6281 25.9195 23.8351 25.8744 23.9617 25.8587L21.1735 25.9539ZM21.1735 25.9539C21.1261 25.9477 20.7639 25.9482 20.3687 25.9553L21.1735 25.9539ZM25.656 20.5554C25.6554 20.5541 25.6551 20.5535 25.6551 20.5535C25.6549 20.5535 25.6589 20.564 25.6642 20.5905C25.6704 20.6213 25.6765 20.663 25.6815 20.715C25.6916 20.8188 25.6965 20.9519 25.6939 21.0987C25.6889 21.3874 25.704 22.3352 25.7271 23.2035C25.7471 23.9559 25.7556 24.3452 25.7462 24.5863C25.7374 24.8104 25.7142 24.8891 25.6665 25.0238C25.6015 25.207 25.5043 25.349 25.3612 25.4719L25.3612 25.4719C25.2264 25.5877 25.1476 25.6206 25.1049 25.6271C25.0804 25.6308 25.0461 25.6304 24.9775 25.5743C24.9079 25.5174 24.8121 25.4469 24.6756 25.4371C24.5586 25.4287 24.444 25.4692 24.3458 25.506L25.6565 20.5564C25.6563 20.556 25.6562 20.5557 25.656 20.5554ZM25.656 20.5554C25.6184 20.4799 25.5916 20.3978 25.5877 20.3048C25.584 20.2129 25.6033 20.1281 25.6319 20.0483C25.6313 20.05 25.6315 20.0488 25.6323 20.0438C25.6343 20.0318 25.64 19.9977 25.6462 19.931C25.6539 19.8494 25.6608 19.7411 25.6667 19.6124C25.6785 19.3554 25.6858 19.0259 25.6881 18.6834C25.6928 17.9914 25.677 17.2735 25.6408 16.9928C25.6243 16.864 25.6003 16.725 25.5753 16.6059C25.5489 16.4804 25.5252 16.3962 25.5125 16.3657L25.5125 16.3657L25.5098 16.3592C25.4787 16.2842 25.4339 16.1762 25.4432 16.0639C25.4544 15.9294 25.5355 15.8378 25.5811 15.7863L25.5824 15.7848C25.5825 15.7843 25.5932 15.7693 25.6074 15.727C25.6223 15.6824 25.6367 15.621 25.6486 15.5421C25.6724 15.3843 25.6837 15.177 25.6802 14.9362C25.6732 14.4554 25.6082 13.8666 25.4873 13.3223L25.7313 13.2681L25.4873 13.3223C25.4475 13.1433 25.4199 13.0093 25.4283 12.8526C25.4363 12.7043 25.4763 12.5445 25.5375 12.3083L25.5375 12.3083C25.6385 11.9192 25.6612 11.7048 25.6546 11.1065C25.6441 10.1446 25.5843 7.52622 25.5548 6.7359C25.5419 6.39067 25.5532 5.81387 25.58 5.44706C25.6061 5.08768 25.6035 4.56582 25.5744 4.24084C25.558 4.05799 25.5493 3.89336 25.5491 3.76537C25.549 3.7019 25.5509 3.64281 25.556 3.59299C25.5585 3.56825 25.5623 3.54128 25.5683 3.51496C25.5712 3.50234 25.5764 3.48137 25.5862 3.45722C25.5876 3.4459 25.5892 3.42944 25.5909 3.40705C25.5954 3.34889 25.599 3.26635 25.6017 3.16453C25.6071 2.96181 25.6084 2.69408 25.6061 2.41682C25.6037 2.13975 25.5977 1.85536 25.5886 1.61958C25.5792 1.37645 25.567 1.20357 25.5553 1.13686C25.5338 1.01457 25.5169 0.933536 25.4994 0.876499C25.4892 0.843004 25.481 0.825972 25.4768 0.818424C25.4741 0.817646 25.4703 0.816693 25.4652 0.81565C25.4329 0.809011 25.3808 0.805439 25.2855 0.805439C25.174 0.805439 25.0618 0.794723 24.9679 0.775964C24.9213 0.766666 24.8733 0.754219 24.8297 0.737353C24.8059 0.72815 24.7602 0.709368 24.7166 0.673813C24.6929 0.667068 24.6547 0.658801 24.6006 0.650389C24.4876 0.632841 24.3286 0.618229 24.1397 0.610252M25.656 20.5554L24.1397 0.610252M24.1397 0.610252C23.4288 0.580257 20.2055 0.529605 18.9891 0.52946M24.1397 0.610252L18.9891 0.52946M18.9891 0.52946C18.9891 0.52946 18.9891 0.52946 18.9891 0.52946M18.9891 0.52946L18.9891 0.52946M18.9891 0.52946L16.661 0.529819C15.8053 0.530107 14.6287 0.509777 14.044 0.484524L18.9891 0.52946ZM0.336896 2.13987L0.336894 2.13989C0.300243 2.35673 0.29758 2.63006 0.337288 3.04302L0.0884355 3.06695L0.337288 3.04302C0.381678 3.50471 0.378812 3.84335 0.325999 4.2809C0.289226 4.58567 0.275452 5.12757 0.283401 5.65199C0.291463 6.18391 0.321441 6.65456 0.361499 6.83045L0.336896 2.13987ZM0.336896 2.13987C0.373101 1.92559 0.406149 1.49099 0.412712 1.16753L0.336896 2.13987ZM0.0141647 15.4092L0.264161 15.4079C0.273465 17.123 0.278668 18.7246 0.275642 18.9644C0.272667 19.2 0.263417 20.6035 0.255193 22.084C0.24837 23.3134 0.246986 23.9883 0.258976 24.3946C0.270852 24.797 0.295522 24.9146 0.333427 25.0372L0.333433 25.0372C0.389071 25.2172 0.414456 25.2501 0.424569 25.2595L0.424734 25.2596C0.428005 25.2627 0.447257 25.281 0.602955 25.3036L0.603012 25.3036C0.732749 25.3225 0.90789 25.3879 1.01684 25.4604C1.01927 25.4615 1.0509 25.4758 1.16398 25.4804C1.29013 25.4855 1.48062 25.478 1.77961 25.4567C1.99529 25.4412 2.20155 25.4284 2.36041 25.4201C2.4397 25.416 2.50819 25.413 2.56055 25.4113C2.60145 25.4101 2.65792 25.4085 2.69372 25.4128C2.68889 25.4122 2.68925 25.4123 2.69926 25.4127C2.70642 25.413 2.71852 25.4135 2.73718 25.4141C2.77352 25.4153 2.8249 25.4167 2.88996 25.4184C3.01993 25.4217 3.20265 25.4258 3.42488 25.4304C3.86925 25.4396 4.47053 25.4509 5.12138 25.462C5.97938 25.4766 6.57601 25.4809 6.96828 25.4744C7.165 25.4711 7.30569 25.4652 7.40043 25.457C7.44635 25.453 7.47677 25.4489 7.49532 25.4455C7.55151 25.4119 7.62089 25.3828 7.69987 25.3779C7.80285 25.3714 7.90198 25.4077 7.97631 25.4838C7.97692 25.4844 7.97928 25.4867 7.98578 25.4896C7.99263 25.4927 8.0047 25.4967 8.02372 25.499C8.06295 25.5037 8.12347 25.5 8.20508 25.476L8.27339 25.7082L8.2051 25.476C8.26604 25.458 8.35411 25.447 8.43987 25.4387C8.53293 25.4296 8.64743 25.4218 8.77434 25.4151C9.02855 25.4017 9.34032 25.3926 9.6458 25.3885C9.95113 25.3845 10.253 25.3854 10.4873 25.3923C10.6039 25.3957 10.7071 25.4008 10.7868 25.4078C10.8262 25.4113 10.8642 25.4156 10.8971 25.4214C10.9134 25.4243 10.9325 25.4282 10.9518 25.4338C10.9625 25.4369 10.9844 25.4435 11.0096 25.4564C11.0176 25.4585 11.0303 25.4614 11.0485 25.4649C11.0925 25.4735 11.155 25.4828 11.2327 25.4922C11.3874 25.5108 11.5903 25.5279 11.8026 25.5384L11.8026 25.5385C12.2956 25.5631 12.5419 25.5733 12.6785 25.5669C12.7199 25.565 12.7424 25.5618 12.7532 25.5597C12.8449 25.4661 12.9694 25.446 13.0496 25.441C13.1414 25.4353 13.2458 25.4456 13.3553 25.4654L13.3553 25.4654C13.5 25.4917 13.8254 25.5121 14.069 25.5072C14.3218 25.502 14.7484 25.4928 15.0169 25.4868C15.1614 25.4835 15.3111 25.4896 15.4381 25.5025C15.5015 25.5089 15.5621 25.5173 15.6153 25.5279C15.6627 25.5372 15.7235 25.5519 15.7756 25.5777L0.0141647 15.4092ZM0.0141647 15.4092L0.264161 15.4079C0.247679 12.3807 0.277487 10.5327 0.379056 8.26441C0.395731 7.89259 0.40328 7.59072 0.401308 7.35748M0.0141647 15.4092L0.401308 7.35748M12.5187 0.554607L12.5186 0.554596C12.4259 0.537353 12.194 0.52319 11.865 0.518066C11.5442 0.513069 11.1507 0.516774 10.7484 0.530252L12.5187 0.554607ZM12.5187 0.554607C12.6211 0.573623 12.7216 0.583077 12.8131 0.574186C12.8891 0.566797 12.9817 0.544343 13.0603 0.482555M12.5187 0.554607L13.0603 0.482555M8.39524 0.42113L8.3952 0.421127C8.09971 0.401432 7.1569 0.362294 6.29934 0.334218C5.6901 0.314309 5.30508 0.30676 5.06905 0.312404C4.97566 0.314636 4.91272 0.318838 4.87175 0.3237C4.87135 0.324178 4.87094 0.324656 4.87052 0.325133C4.84499 0.354682 4.7662 0.433658 4.63846 0.422554C4.52357 0.412567 4.45967 0.335194 4.44187 0.312594C4.4375 0.307048 4.43335 0.301419 4.42941 0.295782C4.40971 0.291931 4.38154 0.287502 4.34237 0.283146C4.19966 0.267274 3.96684 0.257807 3.59568 0.251943L3.59567 0.251943C3.33398 0.247804 3.0846 0.250488 2.89449 0.257996C2.79907 0.261765 2.7213 0.266646 2.66551 0.272121C2.63828 0.274795 2.61936 0.277316 2.60763 0.27932C2.55443 0.300447 2.49641 0.30856 2.46299 0.312887C2.41063 0.319666 2.34836 0.32438 2.28166 0.327396C2.14765 0.333458 1.98249 0.333245 1.81668 0.325621C1.40299 0.306598 1.22419 0.333568 1.1014 0.387617L8.39524 0.42113ZM8.39524 0.42113C9.35016 0.4846 10.4958 0.53873 10.7483 0.530253L8.39524 0.42113ZM0.401308 7.35748C0.399393 7.13103 0.38864 6.94953 0.361508 6.83049L0.401308 7.35748ZM13.0603 0.482555C13.0907 0.476878 13.1433 0.471396 13.2275 0.468459C13.3965 0.462569 13.6569 0.467849 14.044 0.484523L13.0603 0.482555ZM7.51033 25.442C7.51047 25.4421 7.50941 25.4424 7.50694 25.443C7.50901 25.4423 7.5102 25.442 7.51033 25.442ZM2.59758 0.281352C2.59751 0.281331 2.59855 0.281047 2.60093 0.280563C2.59883 0.28113 2.59764 0.281373 2.59758 0.281352ZM4.4672 0.305645C4.46711 0.305679 4.46583 0.305236 4.46362 0.304215C4.46618 0.305101 4.46728 0.305611 4.4672 0.305645ZM4.38905 0.226138C4.38892 0.225883 4.38879 0.225626 4.38867 0.225369L4.3887 0.225428C4.38881 0.225664 4.38893 0.2259 4.38905 0.226138ZM0.531129 0.51841C0.694263 0.51841 0.93992 0.458752 1.10135 0.387639L0.412712 1.16751C0.416452 0.984175 0.423064 0.844143 0.434484 0.736371C0.446162 0.626158 0.461447 0.565345 0.474901 0.532692C0.476788 0.528112 0.478422 0.524587 0.479759 0.52193C0.48814 0.520379 0.504066 0.51841 0.531129 0.51841ZM13.0398 0.487538C13.0397 0.487478 13.0412 0.486902 13.0446 0.485988C13.0417 0.487141 13.0399 0.487598 13.0398 0.487538Z" stroke="white" stroke-opacity="0.15" stroke-width="0.5"/>
</svg>
