<svg width="50" height="28" viewBox="0 0 50 28" fill="none" xmlns="http://www.w3.org/2000/svg">
<path id="Vector" d="M2.78925 0.915665L2.78928 0.915657C3.15544 0.828327 3.60781 0.806696 4.3813 0.825962C4.67157 0.833192 4.95818 0.833292 5.18532 0.827727C5.29906 0.82494 5.39608 0.820775 5.47031 0.815569C5.50749 0.812961 5.5372 0.810212 5.55947 0.807501C5.58017 0.804981 5.58838 0.803196 5.5884 0.803261C5.5884 0.803274 5.58805 0.803367 5.58739 0.803551C5.62563 0.793026 5.67271 0.787803 5.70865 0.784393C5.75097 0.780378 5.8031 0.776832 5.86259 0.773669C5.98192 0.767326 6.13834 0.762136 6.32012 0.758248C6.68409 0.750462 7.15568 0.747769 7.64761 0.751984C8.33046 0.757827 8.78716 0.767324 9.08274 0.78513C9.22959 0.793977 9.34523 0.805321 9.4322 0.821255C9.47558 0.829204 9.51938 0.83961 9.55964 0.854662C9.57444 0.860197 9.59267 0.867758 9.61228 0.878275C9.63663 0.868194 9.66046 0.861334 9.68094 0.856385C9.72605 0.845482 9.77892 0.838243 9.83601 0.832819C9.95156 0.821839 10.1173 0.815432 10.344 0.812496C10.7993 0.806599 11.5267 0.814524 12.6491 0.834391L12.6491 0.834391C14.2309 0.862443 15.9814 0.901728 16.5385 0.921843C18.313 0.985729 20.3937 1.03825 20.8231 1.03043L20.8276 1.28039L20.8231 1.03043C22.3179 1.00331 23.7712 1.0148 24.2207 1.06006L2.78925 0.915665ZM2.78925 0.915665C2.55276 0.9721 2.18235 1.01841 1.98055 1.01841C1.7082 1.01841 1.42939 1.05163 1.25103 1.2861C1.16883 1.39416 1.1247 1.52458 1.09781 1.66203C1.07082 1.79995 1.05778 1.96395 1.05066 2.15303L1.05066 2.15308M2.78925 0.915665L1.05066 2.15308M9.69859 0.948046C9.70108 0.949548 9.70309 0.950873 9.70461 0.951919C9.70845 0.954556 9.71048 0.95633 9.71049 0.956319C9.7105 0.956305 9.70737 0.953514 9.70065 0.946161C9.70064 0.946141 9.70062 0.946121 9.7006 0.946101L9.69852 0.948002M9.69859 0.948046L9.49639 0.959645C9.4964 0.959627 9.49851 0.957656 9.50257 0.95469M9.69859 0.948046C9.69856 0.948031 9.69854 0.948017 9.69852 0.948002M9.69859 0.948046L9.59689 1.04081M9.69852 0.948002C9.68457 0.939599 9.6558 0.925689 9.61503 0.923769C9.56455 0.921393 9.52742 0.938768 9.50979 0.949821C9.50698 0.951576 9.50461 0.953212 9.50266 0.954625M9.69852 0.948002L9.59686 1.04078M9.50266 0.954625L9.50191 0.953938C9.50189 0.953965 9.50187 0.953992 9.50184 0.954019L9.50257 0.95469M9.50266 0.954625C9.50264 0.954647 9.5026 0.954668 9.50257 0.95469M9.50266 0.954625L9.59686 1.04078M9.50257 0.95469L9.59682 1.04082M9.59682 1.04082L9.59686 1.04078M9.59682 1.04082L9.51595 1.11463L9.59685 1.04084M9.59682 1.04082L9.59685 1.04084M9.59686 1.04078L9.59689 1.04081M9.59685 1.04084L9.68638 1.12267L9.59689 1.04081M9.59685 1.04084L9.59689 1.04081M2.02715 26.8002C2.02714 26.8002 2.02713 26.8002 2.02712 26.8002L2.04677 26.551L2.02715 26.8002ZM2.02715 26.8002C2.18427 26.8126 2.42079 26.8618 2.53752 26.904L2.53756 26.904C2.6773 26.9546 2.86084 26.9744 3.12481 26.9801C3.39451 26.986 3.77604 26.9772 4.32807 26.9559L4.3281 26.9559C4.72319 26.9405 5.10002 26.9278 5.3887 26.9197C5.53311 26.9156 5.65493 26.9127 5.7457 26.9112C5.79116 26.9104 5.82814 26.91 5.85595 26.91L5.88912 26.9102C5.8958 26.9103 5.89913 26.9104 5.90004 26.9104C5.90028 26.9104 5.90035 26.9104 5.90027 26.9104L5.90032 26.9104C5.99734 26.9169 8.0489 26.9398 10.4447 26.9619C12.029 26.9765 13.1393 26.981 13.8744 26.9744C14.2417 26.9711 14.5179 26.965 14.7137 26.9558C14.8114 26.9512 14.892 26.9458 14.9553 26.9391L2.02715 26.8002ZM25.5492 26.9602C25.3718 26.9428 25.2315 26.9369 25.1288 26.9404C25.0476 26.9431 25.0091 26.9515 24.9971 26.9541C24.992 26.9552 24.9918 26.9552 24.9953 26.9533C24.9344 26.9874 24.8688 27.017 24.7728 27.0366C24.6855 27.0545 24.5783 27.063 24.4341 27.0666C24.1456 27.0738 23.6543 27.0622 22.7597 27.038C22.3564 27.0272 21.9678 27.0096 21.6659 26.9899C21.5152 26.9801 21.3843 26.9696 21.2833 26.959C21.233 26.9537 21.1879 26.9482 21.1504 26.9423C21.123 26.9381 21.0855 26.9316 21.0511 26.9209C21.0479 26.9204 21.0368 26.9187 21.014 26.9165C20.9776 26.913 20.9267 26.9097 20.8615 26.9066C20.7315 26.9003 20.5543 26.8955 20.3435 26.8922C19.9225 26.8854 19.3742 26.8845 18.8156 26.8885C18.257 26.8925 17.6896 26.9015 17.2302 26.9146C16.7615 26.928 16.4268 26.9453 16.3175 26.9627C16.1101 26.9957 15.9147 27.0079 15.742 26.9967C15.5737 26.9858 15.41 26.9517 15.277 26.8787C15.2744 26.8781 15.2669 26.8767 15.2527 26.8772C15.2263 26.8781 15.1853 26.8852 15.1288 26.9056L40.0718 27.2033L40.0717 27.2033L40.0708 27.2032L40.0679 27.2031L40.058 27.2027L40.0255 27.2018C39.9988 27.2013 39.9637 27.2008 39.921 27.2005C39.8357 27.1998 39.722 27.1995 39.5877 27.1996C39.3193 27.1998 38.9705 27.2017 38.6062 27.2052C37.8737 27.2122 36.8189 27.2002 36.2592 27.1782C35.7068 27.1565 34.5756 27.1245 33.7464 27.107C33.33 27.0982 32.9405 27.0859 32.6481 27.0731C32.5021 27.0667 32.3789 27.0601 32.288 27.0537C32.2429 27.0505 32.2036 27.0472 32.1726 27.0437C32.1573 27.042 32.1414 27.04 32.1266 27.0375L32.1257 27.0373C32.1203 27.0364 32.1064 27.0341 32.0891 27.0294M25.5492 26.9602C25.5492 26.9602 25.5492 26.9602 25.5492 26.9602L25.5736 26.7114L25.5492 26.9602ZM25.5492 26.9602C25.8698 26.9917 26.5138 27.0123 26.9857 27.0071H26.9857C27.4528 27.002 28.2409 26.9928 28.7371 26.9867C28.9798 26.9837 29.2316 26.9894 29.4408 27.0009C29.6601 27.0129 29.8063 27.0302 29.855 27.0433L29.8551 27.0433C29.9826 27.0775 30.1554 27.0913 30.3606 27.0932C30.5706 27.0952 30.833 27.0848 31.149 27.0628L31.149 27.0628C31.4013 27.0452 31.6399 27.0335 31.8203 27.0288C31.9108 27.0265 31.9844 27.0259 32.0367 27.0271C32.0611 27.0277 32.0783 27.0285 32.0891 27.0294M32.0891 27.0294C32.09 27.0294 32.0909 27.0295 32.0917 27.0296C32.1149 27.0316 32.0904 27.0322 32.0562 27.0183M32.0891 27.0294C32.079 27.0266 32.0677 27.0229 32.0562 27.0183M48.9623 21.2749C48.9623 21.275 48.9624 21.275 48.9624 21.275L48.9579 21.2791C48.9549 21.2841 48.9526 21.2882 48.9509 21.2914C48.9484 21.2963 48.9475 21.2988 48.9475 21.2989C48.9474 21.299 48.9482 21.2966 48.9489 21.2922C48.9491 21.2906 48.9493 21.2889 48.9494 21.287L48.7787 21.4446M48.9623 21.2749L48.9581 21.2788C48.9591 21.2772 48.9601 21.2756 48.9613 21.2738M48.9623 21.2749C48.962 21.2745 48.9616 21.2742 48.9613 21.2738M48.9623 21.2749L48.7409 17.1401M48.7787 21.4446L48.9494 21.2868C48.9496 21.2834 48.9497 21.2796 48.9493 21.2755C48.9489 21.2693 48.9478 21.2637 48.9464 21.2592C48.9464 21.2592 48.9464 21.2592 48.9464 21.2591C48.9464 21.2589 48.9463 21.2588 48.9462 21.2586C48.9457 21.2567 48.9451 21.2551 48.9446 21.2539C48.944 21.2524 48.9435 21.2515 48.9435 21.2513C48.9434 21.2512 48.9444 21.2531 48.9474 21.2572C48.9486 21.2588 48.9499 21.2605 48.9515 21.2625C48.9516 21.2626 48.9516 21.2626 48.9517 21.2627C48.9542 21.2658 48.9574 21.2695 48.9613 21.2738M48.7787 21.4446C48.8592 21.5318 48.9063 21.7949 48.8964 22.103M48.7787 21.4446C48.6811 21.3388 48.6746 21.2541 48.7549 21.1326C48.908 20.901 48.9374 18.5615 48.7947 17.9609C48.7302 17.6896 48.6095 17.3787 48.5264 17.27C48.3901 17.0916 48.3948 17.0606 48.5755 16.95L48.8964 22.103M48.9613 21.2738C48.962 21.2727 48.9627 21.2716 48.9634 21.2705L48.9635 21.2704C48.9946 21.2234 49.012 21.171 49.0225 21.1342C49.0344 21.0926 49.0443 21.0459 49.0527 20.9972C49.0697 20.8997 49.0836 20.7789 49.0949 20.6448C49.1176 20.3757 49.1313 20.0364 49.1357 19.6883C49.14 19.3398 49.1351 18.9786 49.1199 18.6652C49.105 18.3578 49.0795 18.0782 49.038 17.9031L49.0379 17.9031C49.0028 17.7555 48.953 17.599 48.9006 17.464C48.8552 17.3472 48.7998 17.2248 48.7409 17.1401M48.7409 17.1401C48.9038 17.0238 48.996 16.8344 49.0484 16.6466C49.1063 16.439 49.128 16.1903 49.121 15.9259C49.1069 15.3961 48.9763 14.7606 48.7353 14.1732C48.658 13.9846 48.6495 13.9379 48.6542 13.8907C48.6607 13.8257 48.6954 13.736 48.8184 13.4791C48.9239 13.259 48.9943 13.0731 49.034 12.8552C49.073 12.6416 49.0801 12.4087 49.0739 12.0987C49.0544 11.1318 48.9437 8.50709 48.8888 7.70938C48.8669 7.39196 48.8866 6.84133 48.9326 6.49854C48.9856 6.10448 48.9812 5.54392 48.9206 5.17766C48.8924 5.00763 48.8794 4.86486 48.8791 4.76416C48.879 4.72431 48.8809 4.69599 48.8832 4.67777C48.8951 4.66026 48.9029 4.64491 48.9074 4.63528C48.9185 4.61182 48.9258 4.58925 48.9307 4.57173C48.9406 4.53649 48.9474 4.49762 48.9526 4.46072C48.9632 4.3855 48.9706 4.28955 48.9758 4.18339C48.9863 3.96946 48.9887 3.6928 48.9843 3.41079C48.9799 3.12844 48.9685 2.83667 48.951 2.59206C48.9345 2.36018 48.9105 2.13739 48.8713 2.01651L48.6335 2.09362L48.8713 2.01651C48.7955 1.78271 48.7115 1.55102 48.4858 1.42351C48.3789 1.36309 48.2587 1.33626 48.1334 1.32231C48.0081 1.30836 47.8577 1.30544 47.6809 1.30544C47.5098 1.30544 47.3423 1.29637 47.2119 1.28226C47.1463 1.27517 47.0939 1.2672 47.057 1.25946C47.0425 1.25642 47.0324 1.25385 47.0261 1.25203C46.9851 1.22881 46.9436 1.21721 46.9214 1.21136C46.8875 1.20241 46.8492 1.19497 46.8094 1.18854C46.7292 1.17561 46.6267 1.1642 46.5082 1.15423C46.2703 1.13422 45.9531 1.11883 45.5907 1.11054L45.585 1.36047L45.5907 1.11054C44.2662 1.08027 38.306 1.0296 36.0568 1.02946L31.7586 1.02982C30.1838 1.03011 28.0208 1.00981 26.9532 0.984824L26.9531 0.984824C26.2379 0.968137 25.7367 0.962285 25.3993 0.968655C25.231 0.971831 25.0983 0.978117 24.9979 0.988423C24.9477 0.993573 24.9014 1.00014 24.8604 1.00901C24.823 1.01711 24.7737 1.03045 24.7275 1.05632L24.7275 1.05635C24.7276 1.0563 24.7274 1.05635 24.7271 1.05648C24.7229 1.05804 24.688 1.07092 24.5971 1.0757C24.5054 1.08053 24.3809 1.07617 24.2207 1.06007L48.7409 17.1401ZM48.8964 22.103C48.8874 22.3853 48.9149 23.3275 48.9575 24.1968C49.031 25.6933 49.0236 25.7949 48.8192 26.1074C48.673 26.3308 48.4478 26.5097 48.1213 26.6616C47.5821 26.9124 47.2144 26.9425 46.82 26.7678C46.59 26.6659 46.4928 26.6621 46.1077 26.7401L48.8964 22.103ZM32.0562 27.0183C32.0557 27.018 32.0552 27.0178 32.0546 27.0176L32.0548 27.0177C32.0553 27.0179 32.0558 27.0181 32.0562 27.0183ZM1.05066 2.15308C1.03921 2.45877 0.980678 2.85557 0.928222 3.02376L1.05066 2.15308ZM0.767141 25.4156C0.790654 25.8472 0.842753 26.034 0.957496 26.235L0.928215 3.02378C0.833474 3.32742 0.839209 3.67178 0.917114 4.11064C0.990615 4.52472 0.98534 4.81187 0.899617 5.19657L0.899613 5.19659C0.820826 5.55028 0.79695 6.13156 0.811814 6.66277C0.819342 6.93181 0.837025 7.19588 0.864431 7.42137C0.890873 7.63892 0.929017 7.84521 0.986942 7.98294L0.986966 7.983C1.00424 8.02405 1.02586 8.13741 1.02938 8.36349C1.03274 8.5787 1.01989 8.86647 0.989574 9.23259L0.989571 9.23262C0.80082 11.5159 0.74565 13.3763 0.776163 16.4117C0.793385 18.1315 0.802836 19.724 0.797443 19.9554C0.791876 20.1943 0.774773 21.6011 0.759608 23.0801C0.747069 24.3038 0.744161 24.9937 0.767141 25.4156ZM48.8326 4.73388C48.8331 4.73343 48.8336 4.73299 48.8341 4.73254C48.8336 4.73301 48.8331 4.73347 48.8325 4.73394L48.8326 4.73388ZM26.983 26.7571C27.4499 26.752 28.2379 26.7428 28.7341 26.7367C29.2302 26.7306 29.7638 26.7599 29.9199 26.8018C30.1112 26.8532 30.5063 26.857 31.1316 26.8134C31.6419 26.7777 32.1007 26.7659 32.151 26.7869L26.983 26.7571Z" fill="url(#paint0_radial_2515_76)" fill-opacity="0.25" stroke="url(#paint1_radial_2515_76)" stroke-width="0.5"/>
<defs>
<radialGradient id="paint0_radial_2515_76" cx="0" cy="0" r="1" gradientUnits="userSpaceOnUse" gradientTransform="translate(25 14) rotate(90) scale(20 36.9231)">
<stop stop-color="#D7961C"/>
<stop offset="1" stop-color="#714F0F"/>
</radialGradient>
<radialGradient id="paint1_radial_2515_76" cx="0" cy="0" r="1" gradientUnits="userSpaceOnUse" gradientTransform="translate(25 14) rotate(54.7824) scale(15.9125 39.2145)">
<stop stop-color="#D7961C"/>
<stop offset="1" stop-color="#714F0F"/>
</radialGradient>
</defs>
</svg>
