<svg width="40" height="66" viewBox="0 0 40 66" fill="none" xmlns="http://www.w3.org/2000/svg">
<g id="Vector">
<path fill-rule="evenodd" clip-rule="evenodd" d="M3.87807 0.113211C3.78176 0.193905 3.30234 0.22979 2.81256 0.192631C2.16917 0.143813 1.81595 0.202284 1.5394 0.4032C1.32892 0.556209 1.0039 0.681348 0.817121 0.681348C0.370506 0.681348 0.273665 1.06915 0.250406 2.9508C0.240501 3.75646 0.190356 4.82534 0.139062 5.32626C0.0745013 5.95651 0.0736169 6.7139 0.136055 7.78533C0.201853 8.9145 0.197431 9.72818 0.119693 10.7909C3.58874e-05 12.4271 0.0368264 16.4345 0.181158 17.4799C0.244127 17.9356 0.249964 19.073 0.198934 20.9505C0.0423096 26.7218 -0.0035901 31.4241 0.0217918 39.1157C0.0361189 43.4737 0.0440784 47.5312 0.0394795 48.1323C0.0348807 48.7334 0.0206421 52.2991 0.00799537 56.056C-0.0129646 62.2874 -0.000936931 62.962 0.145518 63.7434C0.308245 64.6119 0.395268 64.7458 0.872307 64.8602C1.01867 64.8953 1.23455 65.03 1.35217 65.1596C1.51614 65.3403 1.84531 65.3622 2.76534 65.2538C3.425 65.1759 4.02444 65.1245 4.0974 65.1394C4.17036 65.1542 5.86918 65.2125 7.87249 65.2688C10.5129 65.3429 11.5668 65.3139 11.7031 65.1637C11.8263 65.0279 11.9276 65.0174 11.9962 65.1332C12.1442 65.383 12.409 65.4352 12.7318 65.2786C13.1626 65.0695 16.5903 64.9941 16.7679 65.1899C16.854 65.2848 17.4708 65.4074 18.1387 65.4622C19.6356 65.5855 19.7486 65.5768 19.8942 65.3278C19.9707 65.1972 20.1726 65.1762 20.478 65.2675C20.7348 65.3443 21.2633 65.3964 21.6525 65.3835C22.0416 65.3704 22.6983 65.3471 23.1117 65.3316C23.5252 65.3161 23.9698 65.3904 24.0999 65.497C24.2593 65.6274 24.5886 65.6371 25.1096 65.5263C25.5349 65.4358 25.9173 65.4057 25.9592 65.4591C26.0012 65.5125 26.6014 65.5926 27.2931 65.6371C27.9848 65.6815 28.9288 65.7629 29.3909 65.8183C29.853 65.8735 30.7285 65.9041 31.3365 65.8864C31.9445 65.8686 32.5017 65.8671 32.5747 65.883C33.2552 66.0316 35.8762 66.0415 36.1564 65.8965C36.351 65.7957 36.6695 65.6811 36.8642 65.6414C37.0589 65.6019 37.3854 65.4664 37.5898 65.3403C37.9107 65.1422 37.9917 65.1518 38.1834 65.4105C38.512 65.854 38.8184 65.7777 39.2678 65.1409C39.5398 64.7554 39.7275 64.3013 39.8494 63.7341C40.0197 62.941 40.0258 62.6831 39.9646 58.8843C39.929 56.6775 39.9061 54.2858 39.9137 53.5692C39.9219 52.7871 39.8827 52.1191 39.8156 51.8978C39.7342 51.6293 39.7288 51.4142 39.7958 51.1058C39.9233 50.518 39.9478 44.5792 39.8289 43.0546C39.7752 42.3659 39.6746 41.5766 39.6054 41.3008C39.4917 40.848 39.4957 40.7691 39.6462 40.4884C39.999 39.8309 39.9702 36.5284 39.5867 33.6804C39.4628 32.76 39.4668 32.6382 39.6608 31.4035C39.8274 30.3441 39.8636 29.7399 39.8533 28.1865C39.8371 25.7402 39.745 19.0879 39.6995 17.0752C39.6802 16.2236 39.6972 14.7828 39.7374 13.8733C39.7791 12.9299 39.7752 11.5707 39.7283 10.7085C39.6791 9.80359 39.6784 9.11523 39.7265 8.99228C39.8143 8.76768 39.7882 3.65518 39.6946 2.77611C39.5625 1.53492 39.4899 1.40996 38.9008 1.40996C38.6026 1.40996 38.312 1.31415 38.2553 1.19721C38.1933 1.06952 37.7531 0.956764 37.1542 0.915051C36.0527 0.838364 31.0877 0.709764 29.214 0.7094C28.5573 0.7094 26.9455 0.709764 25.6322 0.71031C24.3189 0.711039 22.5147 0.65949 21.6228 0.595918C20.4309 0.511217 19.9677 0.537811 19.8749 0.696467C19.791 0.839822 19.608 0.869148 19.3297 0.7839C18.97 0.673515 17.7721 0.642731 16.523 0.711768C16.1582 0.731987 14.4178 0.59774 12.9413 0.435805C12.4792 0.384984 11.0223 0.285347 9.70388 0.214125C7.83234 0.113212 7.29172 0.134523 7.23865 0.311394C7.18533 0.488994 7.15464 0.484622 7.09662 0.290993C7.03984 0.101372 6.67689 0.0347034 5.53789 0.00501239C4.72134 -0.0162996 3.97438 0.0323354 3.87807 0.113211Z" fill="url(#paint0_radial_2515_88)" fill-opacity="0.76"/>
<path d="M2.77474 0.691198L2.77473 0.691197C2.1582 0.644418 1.95947 0.71608 1.8334 0.807632L2.77474 0.691198ZM2.77474 0.691198C3.04145 0.711433 3.30902 0.712228 3.53008 0.695729C3.63972 0.687546 3.74827 0.674369 3.8443 0.653854C3.89221 0.643617 3.94559 0.629761 3.99852 0.610138C4.02651 0.599765 4.06607 0.583608 4.10949 0.558728C4.11836 0.556991 4.1295 0.55497 4.14315 0.552759C4.2174 0.540734 4.32777 0.529028 4.4704 0.519733C4.75334 0.501296 5.12874 0.494504 5.52484 0.504842L5.52486 0.504843M2.77474 0.691198L5.52486 0.504843M0.636461 5.37719L0.636459 5.37721C0.575852 5.96886 0.573415 6.69588 0.635208 7.75624C0.702201 8.90592 0.697789 9.74155 0.618361 10.8273C0.560098 11.6241 0.539152 13.0181 0.551409 14.3524C0.563752 15.6961 0.609462 16.9262 0.676453 17.4115L0.636461 5.37719ZM0.636461 5.37719C0.689899 4.85533 0.740372 3.76992 0.750368 2.95698L0.636461 5.37719ZM0.0217918 39.1157L0.521789 39.1141C0.53611 43.4701 0.544091 47.5315 0.539465 48.1361C0.534877 48.7359 0.520642 52.3001 0.507993 56.0577C0.48691 62.3254 0.501828 62.9303 0.636961 63.6513L0.145567 63.7434L0.636966 63.6513C0.677266 63.8664 0.709852 64.019 0.741867 64.1325C0.774218 64.2472 0.798653 64.2942 0.810133 64.3119C0.812446 64.3154 0.813005 64.3166 0.813894 64.3174C0.814716 64.3181 0.81582 64.3185 0.818847 64.3201C0.837762 64.3304 0.881138 64.3481 0.988895 64.374L0.989082 64.374C1.13442 64.4089 1.27641 64.4808 1.38768 64.5503C1.49453 64.6169 1.60822 64.7033 1.70232 64.802C1.71905 64.8063 1.75179 64.8125 1.80846 64.8162C1.97544 64.8274 2.24659 64.8115 2.70684 64.7572M0.0217918 39.1157L2.70684 64.7572M0.0217918 39.1157L0.521789 39.1141C0.496419 31.426 0.542299 26.729 0.69875 20.9641C0.749341 19.1027 0.746361 17.9175 0.67646 17.4115L0.0217918 39.1157ZM2.70684 64.7572C3.04081 64.7178 3.36092 64.6849 3.60863 64.6636C3.73203 64.653 3.84078 64.645 3.92566 64.6407C3.96769 64.6385 4.00818 64.637 4.04369 64.6369L4.04601 64.6368C4.06392 64.6367 4.11167 64.6364 4.16445 64.6439M2.70684 64.7572L4.16445 64.6439M4.16445 64.6439C4.16514 64.6439 4.16587 64.644 4.16664 64.6441C4.17886 64.645 4.19813 64.6462 4.22552 64.6477C4.27979 64.6506 4.35755 64.6542 4.45727 64.6584C4.65622 64.6667 4.93656 64.6771 5.27819 64.6888C5.96115 64.7122 6.88562 64.7408 7.88654 64.769C9.20631 64.806 10.1177 64.8169 10.7131 64.8005C11.0126 64.7923 11.2171 64.7775 11.3478 64.7589C11.3747 64.7551 11.396 64.7514 11.4124 64.7482C11.5046 64.6655 11.6405 64.5753 11.8185 64.5568C12.1203 64.5254 12.3204 64.7087 12.4177 64.8641C12.4373 64.8599 12.4687 64.8505 12.5134 64.8288L12.7318 65.2786L12.5134 64.8288C12.6418 64.7665 12.8112 64.7341 12.9425 64.713C13.0943 64.6887 13.2774 64.6681 13.4759 64.6509C13.8743 64.6163 14.3599 64.5929 14.8338 64.5825C15.3073 64.5721 15.7785 64.5744 16.1473 64.5923C16.3301 64.6012 16.4986 64.6145 16.6333 64.6341C16.6995 64.6438 16.7711 64.6569 16.8375 64.6761C16.8707 64.6858 16.9131 64.7 16.9575 64.7212C16.9814 64.7326 17.019 64.7521 17.0602 64.783C17.0649 64.7846 17.0704 64.7865 17.0768 64.7885C17.1322 64.8062 17.218 64.8279 17.3326 64.8507C17.5594 64.8957 17.8614 64.9378 18.1796 64.9639L18.1798 64.9639C18.9496 65.0273 19.3015 65.0501 19.485 65.0361C19.4858 65.036 19.4866 65.0359 19.4874 65.0359C19.6328 64.8203 19.8591 64.7367 20.0489 64.7171C20.2397 64.6973 20.4384 64.7338 20.6212 64.7884L20.6214 64.7885C20.8085 64.8445 21.2782 64.8956 21.6356 64.8838C22.0242 64.8707 22.6802 64.8474 23.093 64.8319C23.333 64.823 23.5815 64.8397 23.7946 64.8754C23.9011 64.8932 24.0074 64.9172 24.1041 64.9487C24.184 64.9749 24.2955 65.0181 24.3948 65.0929C24.4071 65.0958 24.4346 65.1009 24.4837 65.1023C24.5948 65.1055 24.7637 65.0887 25.0055 65.0373C25.2345 64.9885 25.4584 64.9545 25.6388 64.9403C25.7269 64.9333 25.8192 64.9299 25.9023 64.9355C25.9425 64.9382 25.9984 64.9441 26.0578 64.9601L26.0581 64.9601C26.0777 64.9654 26.1305 64.9796 26.1923 65.0142C26.1926 65.0142 26.193 65.0143 26.1933 65.0144C26.2476 65.0261 26.3334 65.0404 26.4487 65.0558C26.6766 65.0862 26.9879 65.1164 27.3252 65.1381C28.0218 65.1829 28.9756 65.265 29.4502 65.3218C29.4502 65.3218 29.4503 65.3219 29.4504 65.3219L29.3909 65.8183L4.16445 64.6439ZM39.3071 50.9998C39.2244 51.3808 39.2281 51.6831 39.3371 52.0428L39.3371 52.0429L29.214 1.2094C31.0829 1.20977 36.0347 1.33832 37.1195 1.41384C37.3999 1.43338 37.6278 1.46873 37.782 1.50824C37.8271 1.51982 37.8607 1.53042 37.8842 1.5389C37.9464 1.61562 38.0169 1.66793 38.0693 1.70138C38.1539 1.75528 38.2454 1.79412 38.3309 1.8223C38.5023 1.87879 38.7027 1.90996 38.9008 1.90996C38.9674 1.90996 39.0142 1.91182 39.049 1.91529C39.0503 1.91542 39.0516 1.91555 39.0528 1.91568C39.0662 1.95251 39.0852 2.01824 39.1061 2.13032C39.1367 2.29538 39.1643 2.51841 39.1974 2.82903C39.2409 3.23731 39.2713 4.70469 39.2786 6.13219C39.2822 6.83821 39.2802 7.522 39.2718 8.04183C39.2676 8.30231 39.2619 8.51812 39.2547 8.67375C39.2511 8.75216 39.2474 8.81032 39.2438 8.84921C39.2432 8.85578 39.2426 8.86121 39.2421 8.86562C39.227 8.91809 39.2196 8.96588 39.2155 8.9955C39.2086 9.04498 39.2039 9.09918 39.2005 9.15421C39.1937 9.26484 39.1908 9.40225 39.1909 9.55767C39.1912 9.86987 39.2041 10.2776 39.229 10.7357C39.2749 11.58 39.2789 12.9227 39.2379 13.8512C39.1973 14.7711 39.18 16.2231 39.1996 17.0865C39.2451 19.0961 39.3371 25.7456 39.3533 28.1898C39.3635 29.727 39.3279 30.3022 39.1669 31.3258L39.1669 31.3259C39.0712 31.9349 39.0158 32.3067 39.0048 32.6435C38.9935 32.9902 39.0295 33.2891 39.0912 33.7471C39.2801 35.1502 39.3817 36.667 39.3926 37.9102C39.398 38.5323 39.3806 39.0779 39.3418 39.5021C39.3223 39.7145 39.2981 39.8894 39.2707 40.0245C39.2415 40.1682 39.2149 40.2348 39.2056 40.2521L39.2056 40.2521C39.1257 40.401 39.0389 40.5749 39.0274 40.805C39.0173 41.0039 39.0672 41.2105 39.1204 41.4225L39.1204 41.4226C39.1783 41.6531 39.2766 42.4044 39.3304 43.0935C39.388 43.8318 39.412 45.6768 39.4047 47.4294C39.4012 48.3014 39.3899 49.1423 39.3717 49.8004C39.3625 50.1297 39.3517 50.4104 39.3395 50.6251C39.3334 50.7326 39.327 50.8207 39.3207 50.8885C39.3175 50.9223 39.3145 50.9491 39.3118 50.9696C39.3104 50.9801 39.3092 50.9876 39.3084 50.9925C39.3076 50.9976 39.3071 50.9999 39.3071 50.9998ZM39.3071 50.9998L39.7958 51.1058L39.3071 50.9997C39.3071 50.9997 39.3071 50.9997 39.3071 50.9998ZM19.1832 1.26196L19.1831 1.26191C19.0791 1.23001 18.7582 1.19352 18.247 1.18039C17.7616 1.16791 17.1635 1.17713 16.5507 1.211L19.1832 1.26196ZM19.1832 1.26196C19.3578 1.31544 19.5568 1.35127 19.7543 1.3196C19.9297 1.29149 20.0961 1.21003 20.2206 1.06829M19.1832 1.26196L20.2206 1.06829M12.8868 0.932825L12.8866 0.932809C12.4405 0.883743 10.9972 0.78472 9.67696 0.713399L12.8868 0.932825ZM12.8868 0.932825C13.6306 1.0144 14.4402 1.08894 15.1106 1.14062M12.8868 0.932825L15.1106 1.14062M5.52486 0.504843C6.09735 0.519766 6.43606 0.543705 6.63284 0.579817C6.6473 0.58247 6.66016 0.585053 6.67155 0.58751C6.67571 0.597175 6.68005 0.606776 6.68456 0.616235C6.69875 0.645962 6.72599 0.698726 6.77111 0.752108C6.81107 0.799398 6.9174 0.909378 7.09841 0.93534C7.30245 0.964605 7.45193 0.868725 7.52498 0.801197C7.57566 0.754352 7.60919 0.705025 7.62957 0.670301M5.52486 0.504843L7.62957 0.670301M0.874673 1.17959C0.870197 1.19373 0.865274 1.21091 0.860109 1.23159C0.794134 1.49579 0.7622 1.99979 0.750368 2.95694L0.874673 1.17959ZM0.874673 1.17959C1.0401 1.1697 1.21065 1.11955 1.34905 1.06625C1.51243 1.00334 1.68641 0.914463 1.83328 0.807714L0.874673 1.17959ZM20.2206 1.06829C20.2525 1.06328 20.2994 1.0579 20.3654 1.05411C20.6066 1.04024 20.992 1.05235 21.5872 1.09465L20.2206 1.06829ZM15.1106 1.14062C15.7622 1.19084 16.3273 1.22337 16.5506 1.21101L15.1106 1.14062ZM7.62957 0.670301C7.67374 0.665636 7.73243 0.661225 7.80905 0.658202C8.15777 0.644445 8.73786 0.662764 9.67691 0.713397L7.62957 0.670301ZM11.4555 64.7381C11.4549 64.7383 11.4542 64.7385 11.4534 64.7387C11.4616 64.7354 11.4633 64.7356 11.4555 64.7381ZM1.68779 64.7973C1.68789 64.7972 1.68921 64.7977 1.69145 64.7988C1.68881 64.7979 1.68769 64.7973 1.68779 64.7973ZM39.2403 8.88064C39.2396 8.88525 39.2396 8.88413 39.2406 8.87876L39.2403 8.88064ZM38.8593 64.8526L39.2678 65.1409L39.8494 63.7341L39.3605 63.6291C39.3605 63.6291 39.3605 63.6291 39.3605 63.6291C39.2496 64.1452 39.0846 64.5333 38.8593 64.8526ZM4.08239 0.564807C4.0831 0.564601 4.08418 0.564306 4.08566 0.56393C4.07637 0.567244 4.07422 0.567168 4.08239 0.564807ZM21.5873 1.09466C22.4952 1.15937 24.3122 1.21104 25.6324 1.21031L21.5873 1.09466ZM25.6325 1.21031C26.9457 1.20976 28.5573 1.2094 29.2139 1.2094L25.6325 1.21031ZM20.1649 1.08049C20.1648 1.08046 20.1658 1.08008 20.168 1.07938C20.166 1.08016 20.1649 1.08051 20.1649 1.08049ZM7.51496 0.690008C7.51486 0.689969 7.51651 0.68933 7.52024 0.68821C7.51693 0.689487 7.51507 0.690047 7.51496 0.690008Z" stroke="#FFB775" stroke-opacity="0.37"/>
</g>
<defs>
<radialGradient id="paint0_radial_2515_88" cx="0" cy="0" r="1" gradientUnits="userSpaceOnUse" gradientTransform="translate(20 33) rotate(90) scale(45 27.2727)">
<stop stop-color="#FFB775"/>
<stop offset="1" stop-color="#996E46"/>
</radialGradient>
</defs>
</svg>
