<svg width="336" height="34" viewBox="0 0 336 34" fill="none" xmlns="http://www.w3.org/2000/svg">
<path fill-rule="evenodd" clip-rule="evenodd" d="M32.5758 0.0583211C31.7668 0.0998907 27.7396 0.118377 23.6255 0.0992339C18.221 0.0740857 15.254 0.104207 12.931 0.207709C11.1629 0.286532 8.43279 0.350997 6.86382 0.350997C3.11225 0.350997 2.29879 0.550776 2.10341 1.52011C2.02021 1.93515 1.59899 2.48578 1.16812 2.74383C0.625811 3.06851 0.618382 3.45868 1.14286 4.01062C1.69556 4.59232 1.65842 5.01149 1.00542 5.55893C0.000301454 6.40186 0.309342 8.46627 1.52173 9.0048C2.05066 9.23958 2.09969 9.82549 1.67105 10.7927C0.3554 13.7658 -0.0301568 16.1882 0.183051 20.1505C0.303399 22.3956 0.370258 24.4858 0.331628 24.7954C0.292998 25.1051 0.173394 26.9419 0.0671611 28.8773C-0.108903 32.0875 -0.00787022 32.4349 1.22235 32.8375C2.58926 33.2849 3.32025 33.3539 7.32738 33.4128C8.55685 33.4309 10.3702 33.5003 11.3583 33.5671C12.7356 33.6602 15.5006 33.6714 23.2288 33.6156C28.77 33.5754 33.8053 33.549 34.4182 33.5567C35.031 33.5643 49.3011 33.5943 66.129 33.6233C88.3085 33.6615 97.1607 33.6466 98.3063 33.5692C99.3411 33.4992 100.192 33.4938 100.768 33.5535C102.011 33.6821 104.236 33.7091 106.947 33.6284C110.566 33.5206 139.359 33.4818 140.851 33.5827C141.573 33.6316 146.755 33.6947 152.365 33.7229C164.939 33.7865 165.888 33.782 167.112 33.6537C167.754 33.5864 169.45 33.5756 172.015 33.6226C174.173 33.6622 178.612 33.6891 181.881 33.6824C185.15 33.6757 190.665 33.6636 194.138 33.6557C197.611 33.6477 201.347 33.686 202.439 33.7409C203.778 33.8081 206.544 33.813 210.921 33.756C214.493 33.7093 217.705 33.6939 218.057 33.7214C218.41 33.7489 223.452 33.7901 229.262 33.813C235.072 33.8359 243.002 33.8779 246.883 33.9064C250.765 33.9348 258.119 33.9506 263.227 33.9415C268.334 33.9323 273.014 33.9315 273.627 33.9397C279.344 34.0163 301.36 34.0214 303.714 33.9467C305.348 33.8948 308.023 33.8357 309.659 33.8153C311.294 33.7949 314.037 33.7251 315.754 33.6602C318.45 33.5581 319.13 33.5631 320.74 33.6963C323.501 33.9248 326.075 33.8855 329.849 33.5574C332.135 33.3589 333.711 33.1249 334.735 32.8327C336.165 32.4242 336.217 32.2913 335.703 30.3343C335.404 29.1975 335.212 27.9654 335.275 27.5963C335.344 27.1933 335.015 26.8492 334.451 26.7352C333.767 26.5969 333.722 26.4861 334.284 26.3272C335.356 26.0244 335.561 22.9651 334.563 22.1796C334.111 21.8248 333.267 21.4183 332.685 21.2762C331.73 21.0429 331.764 21.0023 333.028 20.8577C335.992 20.5189 335.749 18.8177 332.528 17.3505C331.487 16.8764 331.521 16.8136 333.151 16.1776C334.55 15.6318 334.854 15.3206 334.767 14.5203C334.631 13.2601 333.858 9.83319 333.475 8.79629C333.314 8.3576 333.457 7.61536 333.794 7.14683C334.144 6.66085 334.111 5.96064 333.718 5.51651C333.305 5.05033 333.299 4.69573 333.703 4.63239C334.44 4.51669 334.221 1.88297 333.435 1.43012C332.325 0.790716 331.715 0.726344 326.766 0.726344C324.261 0.726344 321.821 0.676986 321.344 0.616743C320.823 0.550963 317.126 0.492878 312.095 0.47139C302.843 0.431885 261.136 0.365636 245.398 0.365448C239.882 0.365448 226.343 0.365636 215.311 0.365918C204.279 0.366293 189.123 0.339737 181.631 0.306988C171.619 0.263354 167.729 0.277054 166.949 0.358786C166.245 0.432635 164.707 0.447743 162.37 0.403827C159.348 0.346962 149.285 0.331104 138.794 0.366668C135.729 0.377084 121.11 0.307926 108.707 0.224506C104.825 0.198325 92.5875 0.146997 81.5126 0.110307C65.7917 0.0583211 61.2504 0.0693 60.8047 0.160415C60.3567 0.251906 60.099 0.249654 59.6116 0.149906C59.1347 0.0522218 56.0859 0.0178775 46.5183 0.00258214C39.6592 -0.00839674 33.3848 0.0166576 32.5758 0.0583211Z" fill="white" fill-opacity="0.05"/>
<path d="M32.5887 0.30799L32.5886 0.307992C31.7708 0.350014 27.7348 0.368357 23.6244 0.349231C18.2201 0.324084 15.2584 0.354258 12.9421 0.457461C11.1708 0.536429 8.43693 0.600997 6.86382 0.600997C4.98064 0.600997 3.87145 0.652311 3.20967 0.814838C2.88361 0.894916 2.69327 0.996111 2.57474 1.1093C2.46038 1.21851 2.39069 1.36008 2.34848 1.5695C2.29663 1.82783 2.14718 2.10405 1.96475 2.34268C1.78051 2.58366 1.54489 2.80959 1.29657 2.95831L1.29653 2.95833C1.055 3.10293 1.00697 3.21728 1.0054 3.29693C1.00336 3.39988 1.07112 3.5722 1.32409 3.83842L1.32409 3.83842C1.61473 4.1443 1.8069 4.46366 1.7753 4.81972C1.74427 5.16942 1.50394 5.46723 1.16604 5.75051C0.751531 6.09816 0.584231 6.72459 0.679252 7.35898C0.774195 7.99285 1.11905 8.55234 1.62316 8.77629L32.5887 0.30799ZM32.5887 0.30799C33.389 0.266771 39.6535 0.241594 46.5179 0.252582C51.3018 0.26023 54.4547 0.272639 56.4711 0.295332C57.4795 0.306681 58.202 0.320586 58.7015 0.337681C59.2107 0.35511 59.4672 0.37552 59.5615 0.394821L59.5615 0.394828C60.0789 0.500742 60.3709 0.504171 60.8547 0.405359L60.8548 0.40535C60.8877 0.398608 60.9871 0.38883 61.1889 0.379716C61.3831 0.370949 61.6558 0.363297 62.022 0.356797C62.7541 0.343802 63.8532 0.335515 65.4311 0.331697C68.5864 0.324064 73.6512 0.334312 81.5118 0.360305C92.5868 0.396996 104.824 0.448323 108.705 0.4745C121.108 0.557918 135.728 0.627088 138.794 0.616667C149.287 0.5811 159.346 0.596981 162.365 0.653783C164.698 0.697629 166.252 0.683186 166.975 0.607425C167.349 0.568228 168.5 0.544086 170.829 0.535873C173.15 0.52769 176.624 0.535169 181.63 0.556986C189.123 0.589737 204.279 0.616293 215.311 0.615918C226.343 0.615636 239.882 0.615448 245.398 0.615448C261.136 0.615636 302.842 0.681885 312.094 0.721388C314.609 0.732129 316.79 0.752017 318.407 0.777426C320.035 0.803003 321.07 0.834101 321.313 0.864772C321.568 0.896956 322.313 0.924337 323.29 0.944083C324.274 0.963992 325.512 0.976344 326.766 0.976344C329.246 0.976344 330.62 0.992753 331.514 1.08707C332.387 1.17925 332.784 1.34361 333.31 1.64674C333.43 1.7158 333.564 1.89713 333.678 2.19465C333.788 2.48109 333.862 2.83262 333.891 3.17852C333.92 3.52638 333.902 3.84994 333.841 4.08351C333.773 4.34187 333.686 4.38191 333.664 4.3854C333.531 4.40632 333.4 4.4559 333.3 4.55424C333.196 4.65777 333.151 4.7913 333.154 4.92758C333.158 5.17576 333.315 5.43882 333.531 5.68231C333.846 6.03778 333.874 6.60832 333.591 7.00075L333.794 7.14683L333.591 7.00078C333.398 7.26933 333.266 7.60721 333.202 7.93533C333.139 8.25977 333.138 8.60536 333.241 8.88283C333.426 9.38377 333.712 10.4845 333.97 11.6296C334.228 12.773 334.452 13.9326 334.519 14.5471L334.767 14.5203L334.519 14.5473C334.539 14.7321 334.534 14.8686 334.506 14.9786C334.479 15.0838 334.429 15.1763 334.338 15.2698C334.14 15.4718 333.765 15.6698 333.06 15.9447L333.151 16.177L333.06 15.9447C332.654 16.103 332.338 16.2294 332.112 16.3367C331.999 16.3903 331.901 16.443 331.822 16.4965C331.748 16.547 331.666 16.6148 331.617 16.7075C331.557 16.8204 331.559 16.9456 331.617 17.0561C331.666 17.1469 331.745 17.2132 331.814 17.2614C331.954 17.3598 332.17 17.4621 332.425 17.578C333.216 17.9387 333.813 18.3084 334.219 18.659C334.63 19.0149 334.816 19.3254 334.85 19.5625C334.88 19.7707 334.799 19.975 334.514 20.1653C334.218 20.3634 333.723 20.5266 333 20.6093C332.684 20.6454 332.439 20.6757 332.266 20.7047C332.18 20.7191 332.104 20.7344 332.043 20.7519C332.013 20.7607 331.98 20.7718 331.948 20.7865C331.922 20.7991 331.872 20.8253 331.831 20.8751C331.779 20.9386 331.747 21.0365 331.784 21.1402C331.813 21.2187 331.869 21.2633 331.894 21.2815C331.948 21.3214 332.019 21.3488 332.076 21.3687C332.2 21.4123 332.389 21.4612 332.626 21.519C333.174 21.653 333.986 22.0444 334.408 22.3761C334.597 22.5241 334.751 22.8016 334.849 23.1793C334.946 23.5511 334.979 23.9892 334.95 24.4176C334.922 24.847 334.831 25.2514 334.692 25.5589C334.55 25.8748 334.379 26.0407 334.216 26.0866C334.073 26.1271 333.948 26.1699 333.858 26.2189C333.815 26.2423 333.756 26.2794 333.711 26.3375C333.658 26.4076 333.621 26.5168 333.669 26.6334C333.706 26.724 333.778 26.7752 333.819 26.8003C333.866 26.8294 333.921 26.8522 333.974 26.8712C334.083 26.9094 334.227 26.945 334.401 26.9803C334.648 27.0301 334.82 27.1258 334.919 27.2302C335.015 27.3297 335.048 27.4386 335.028 27.554L335.275 27.5963L335.028 27.5541C335.007 27.6785 335.01 27.8508 335.024 28.0386C335.038 28.2325 335.067 28.4636 335.106 28.716C335.185 29.221 335.309 29.8216 335.461 30.3978C335.59 30.8891 335.68 31.2518 335.722 31.5308C335.766 31.8134 335.754 31.9723 335.715 32.0739C335.681 32.1615 335.613 32.2386 335.449 32.3223C335.275 32.4101 335.027 32.4892 334.666 32.5923C333.667 32.8775 332.111 33.11 329.828 33.3084C326.062 33.6356 323.503 33.6741 320.761 33.4472C319.137 33.3127 318.445 33.3081 315.744 33.4104C314.03 33.4752 311.289 33.545 309.656 33.5653C308.019 33.5858 305.342 33.6448 303.706 33.6968C301.358 33.7713 279.347 33.7663 273.63 33.6897C273.015 33.6815 268.332 33.6823 263.226 33.6915C258.12 33.7006 250.766 33.6848 246.885 33.6564C243.003 33.6279 235.073 33.5859 229.263 33.563C223.443 33.5401 218.417 33.4987 218.077 33.4721C217.887 33.4573 216.981 33.4546 215.695 33.4609C214.401 33.4671 212.704 33.4827 210.918 33.506C206.539 33.5631 203.781 33.5579 202.452 33.4912C201.351 33.4359 197.609 33.3977 194.138 33.4057C190.665 33.4136 185.149 33.4257 181.88 33.4324C178.613 33.4391 174.175 33.4122 172.02 33.3727C169.46 33.3258 167.747 33.3358 167.086 33.4051L167.112 33.6537L167.085 33.4051C165.88 33.5315 164.953 33.5365 152.367 33.473C146.75 33.4447 141.58 33.3814 140.867 33.3332C140.11 33.282 132.525 33.2667 124.696 33.2773C116.861 33.2879 108.754 33.3245 106.939 33.3785C104.23 33.4591 102.019 33.4316 100.794 33.3048C100.196 33.243 99.3292 33.2495 98.2894 33.3197C97.1553 33.3964 88.3183 33.4115 66.1294 33.3733C49.3 33.3443 35.0324 33.3143 34.4213 33.3067C33.8052 33.299 28.7662 33.3255 23.227 33.3656C15.4933 33.4215 12.7406 33.4099 11.3751 33.3177C10.3818 33.2505 8.56392 33.181 7.33106 33.1628C3.31934 33.1039 2.62558 33.0338 1.30012 32.5999L1.22235 32.8375L1.3001 32.5999C0.995677 32.5003 0.794485 32.4138 0.651278 32.3028C0.518502 32.1998 0.423139 32.0657 0.357401 31.8403C0.288777 31.605 0.25426 31.2759 0.250375 30.7918C0.24651 30.3102 0.27276 29.6937 0.316785 28.891C0.423313 26.9503 0.542446 25.1251 0.579705 24.8264C0.591893 24.7287 0.594281 24.5211 0.591622 24.2523C0.58888 23.9751 0.580323 23.6126 0.566828 23.1908C0.539832 22.3468 0.492945 21.2611 0.432693 20.1371L0.43269 20.1371M32.5887 0.30799L0.43269 20.1371M0.43269 20.1371C0.22114 16.2055 0.603077 13.8239 1.89967 10.8938M0.43269 20.1371L1.89967 10.8938M1.89967 10.8938C2.11948 10.3978 2.23467 9.96295 2.20461 9.60326M1.89967 10.8938L2.20461 9.60326M2.20461 9.60326C2.1892 9.41881 2.13513 9.24902 2.03316 9.10364M2.20461 9.60326L2.03316 9.10364M2.03316 9.10364C1.93101 8.95799 1.79038 8.85053 1.62322 8.77632L2.03316 9.10364Z" stroke="white" stroke-opacity="0.15" stroke-width="0.5"/>
</svg>
