<svg width="418" height="113" viewBox="0 0 418 113" fill="none" xmlns="http://www.w3.org/2000/svg">
<g filter="url(#filter0_d_2513_28)">
<path fill-rule="evenodd" clip-rule="evenodd" d="M73.5758 40.0532C72.7668 40.0911 68.7396 40.1079 64.6255 40.0905C59.221 40.0675 56.254 40.095 53.931 40.1894C52.1629 40.2612 49.4328 40.32 47.8638 40.32C44.1122 40.32 43.2988 40.5022 43.1034 41.386C43.0202 41.7644 42.599 42.2664 42.1681 42.5017C41.6258 42.7978 41.6184 43.1535 42.1429 43.6567C42.6956 44.1871 42.6584 44.5693 42.0054 45.0684C41.0003 45.837 41.3093 47.7192 42.5217 48.2103C43.0507 48.4243 43.0997 48.9585 42.671 49.8404C41.3554 52.5512 40.9698 54.7598 41.1831 58.3725C41.3034 60.4195 41.3703 62.3253 41.3316 62.6076C41.293 62.8899 41.1734 64.5647 41.0672 66.3293C40.8911 69.2562 40.9921 69.573 42.2223 69.9401C43.5893 70.348 44.3203 70.4109 48.3274 70.4646C49.5569 70.4811 51.3702 70.5444 52.3583 70.6053C53.7356 70.6902 56.5006 70.7004 64.2288 70.6495C69.77 70.6129 74.8053 70.5888 75.4182 70.5958C76.031 70.6027 90.3011 70.6301 107.129 70.6565C129.309 70.6914 138.161 70.6778 139.306 70.6072C140.341 70.5434 141.192 70.5385 141.768 70.5929C143.011 70.7102 145.236 70.7347 147.947 70.6612C151.566 70.5629 180.359 70.5275 181.851 70.6195C182.573 70.6641 187.755 70.7216 193.365 70.7474C205.939 70.8053 206.888 70.8012 208.112 70.6843C208.754 70.6229 210.45 70.6131 213.015 70.6559C215.173 70.692 219.612 70.7165 222.881 70.7104C226.15 70.7043 231.665 70.6933 235.138 70.6861C238.611 70.6788 242.347 70.7137 243.439 70.7637C244.778 70.825 247.544 70.8295 251.921 70.7775C255.493 70.735 258.705 70.7209 259.057 70.7459C259.41 70.771 264.452 70.8087 270.262 70.8295C276.072 70.8504 284.002 70.8887 287.883 70.9147C291.765 70.9406 299.119 70.955 304.227 70.9467C309.334 70.9383 314.014 70.9376 314.627 70.945C320.344 71.0148 342.36 71.0195 344.714 70.9514C346.348 70.9041 349.023 70.8502 350.659 70.8316C352.294 70.813 355.037 70.7494 356.754 70.6902C359.45 70.5971 360.13 70.6016 361.74 70.7231C364.501 70.9314 367.075 70.8956 370.849 70.5965C373.135 70.4154 374.711 70.2021 375.735 69.9357C377.165 69.5632 377.217 69.4421 376.703 67.6578C376.404 66.6212 376.212 65.4979 376.275 65.1613C376.344 64.7939 376.015 64.4802 375.451 64.3762C374.767 64.2501 374.722 64.1491 375.284 64.0042C376.356 63.7281 376.561 60.9387 375.563 60.2226C375.111 59.8991 374.267 59.5284 373.685 59.3989C372.73 59.1862 372.764 59.1491 374.028 59.0173C376.992 58.7084 376.749 57.1573 373.528 55.8196C372.487 55.3873 372.521 55.33 374.151 54.7501C375.55 54.2525 375.854 53.9687 375.767 53.2391C375.631 52.0901 374.858 48.9656 374.475 48.0201C374.314 47.6202 374.457 46.9434 374.794 46.5162C375.144 46.0731 375.111 45.4347 374.718 45.0298C374.305 44.6047 374.299 44.2814 374.703 44.2236C375.44 44.1182 375.221 41.7168 374.435 41.3039C373.325 40.7209 372.715 40.6623 367.766 40.6623C365.261 40.6623 362.821 40.6173 362.344 40.5623C361.823 40.5023 358.126 40.4494 353.095 40.4298C343.843 40.3938 302.136 40.3334 286.398 40.3332C280.882 40.3332 267.343 40.3334 256.311 40.3336C245.279 40.334 230.123 40.3098 222.631 40.2799C212.619 40.2401 208.729 40.2526 207.949 40.3271C207.245 40.3945 205.707 40.4082 203.37 40.3682C200.348 40.3163 190.285 40.3019 179.794 40.3343C176.729 40.3438 162.11 40.2808 149.707 40.2047C145.825 40.1808 133.588 40.134 122.513 40.1006C106.792 40.0532 102.25 40.0632 101.805 40.1463C101.357 40.2297 101.099 40.2276 100.612 40.1367C100.135 40.0476 97.0859 40.0163 87.5183 40.0024C80.6592 39.9923 74.3848 40.0152 73.5758 40.0532Z" fill="url(#paint0_linear_2513_28)" shape-rendering="crispEdges"/>
</g>
<g filter="url(#filter1_d_2513_28)">
<path fill-rule="evenodd" clip-rule="evenodd" d="M73.5758 40.0635C72.7668 40.1087 68.7396 40.1288 64.6255 40.108C59.221 40.0806 56.254 40.1134 53.931 40.226C52.1629 40.3118 49.4328 40.382 47.8638 40.382C44.1122 40.382 43.2988 40.5994 43.1034 41.6542C43.0202 42.1059 42.599 42.7051 42.1681 42.9859C41.6258 43.3393 41.6184 43.7639 42.1429 44.3645C42.6956 44.9975 42.6584 45.4537 42.0054 46.0494C41.0003 46.9667 41.3093 49.2133 42.5217 49.7993C43.0507 50.0548 43.0997 50.6924 42.671 51.745C41.3554 54.9804 40.9698 57.6165 41.1831 61.9285C41.3034 64.3716 41.3703 66.6463 41.3316 66.9833C41.293 67.3202 41.1734 69.3192 41.0672 71.4253C40.8911 74.9187 40.9921 75.2969 42.2223 75.7349C43.5893 76.2218 44.3203 76.2969 48.3274 76.361C49.5569 76.3807 51.3702 76.4562 52.3583 76.5289C53.7356 76.6302 56.5006 76.6424 64.2288 76.5817C69.77 76.538 74.8053 76.5092 75.4182 76.5176C76.031 76.5258 90.3011 76.5585 107.129 76.5901C129.309 76.6316 138.161 76.6154 139.306 76.5311C140.341 76.4551 141.192 76.4491 141.768 76.5141C143.011 76.6541 145.236 76.6834 147.947 76.5956C151.566 76.4783 180.359 76.4361 181.851 76.5458C182.573 76.599 187.755 76.6678 193.365 76.6985C205.939 76.7676 206.888 76.7627 208.112 76.6231C208.754 76.5499 210.45 76.5382 213.015 76.5893C215.173 76.6324 219.612 76.6616 222.881 76.6544C226.15 76.647 231.665 76.634 235.138 76.6253C238.611 76.6166 242.347 76.6583 243.439 76.718C244.778 76.7911 247.544 76.7965 251.921 76.7345C255.493 76.6837 258.705 76.6669 259.057 76.6968C259.41 76.7267 264.452 76.7716 270.262 76.7965C276.072 76.8215 284.002 76.8671 287.883 76.8981C291.765 76.9291 299.119 76.9462 304.227 76.9363C309.334 76.9263 314.014 76.9255 314.627 76.9344C320.344 77.0177 342.36 77.0232 344.714 76.942C346.348 76.8855 349.023 76.8212 350.659 76.799C352.294 76.7768 355.037 76.7009 356.754 76.6302C359.45 76.5191 360.13 76.5245 361.74 76.6695C364.501 76.9182 367.075 76.8754 370.849 76.5184C373.135 76.3023 374.711 76.0477 375.735 75.7297C377.165 75.2851 377.217 75.1405 376.703 73.0109C376.404 71.7737 376.212 70.433 376.275 70.0312C376.344 69.5927 376.015 69.2183 375.451 69.0942C374.767 68.9437 374.722 68.8231 375.284 68.6502C376.356 68.3207 376.561 64.9914 375.563 64.1367C375.111 63.7506 374.267 63.3081 373.685 63.1535C372.73 62.8996 372.764 62.8554 374.028 62.6981C376.992 62.3294 376.749 60.478 373.528 58.8815C372.487 58.3655 372.521 58.2971 374.151 57.605C375.55 57.0111 375.854 56.6724 375.767 55.8015C375.631 54.4301 374.858 50.7008 374.475 49.5724C374.314 49.095 374.457 48.2873 374.794 47.7774C375.144 47.2486 375.111 46.4866 374.718 46.0033C374.305 45.496 374.299 45.1101 374.703 45.0411C375.44 44.9152 375.221 42.0491 374.435 41.5563C373.325 40.8605 372.715 40.7904 367.766 40.7904C365.261 40.7904 362.821 40.7367 362.344 40.6712C361.823 40.5996 358.126 40.5364 353.095 40.513C343.843 40.47 302.136 40.3979 286.398 40.3977C280.882 40.3977 267.343 40.3979 256.311 40.3982C245.279 40.3986 230.123 40.3697 222.631 40.3341C212.619 40.2866 208.729 40.3015 207.949 40.3904C207.245 40.4708 205.707 40.4872 203.37 40.4395C200.348 40.3776 190.285 40.3603 179.794 40.399C176.729 40.4104 162.11 40.3351 149.707 40.2443C145.825 40.2158 133.588 40.16 122.513 40.12C106.792 40.0635 102.25 40.0754 101.805 40.1746C101.357 40.2741 101.099 40.2717 100.612 40.1631C100.135 40.0568 97.0859 40.0195 87.5183 40.0028C80.6592 39.9909 74.3848 40.0181 73.5758 40.0635Z" fill="url(#paint1_linear_2513_28)" shape-rendering="crispEdges"/>
</g>
<defs>
<filter id="filter0_d_2513_28" x="-2.2" y="0.799999" width="422.4" height="117.4" filterUnits="userSpaceOnUse" color-interpolation-filters="sRGB">
<feFlood flood-opacity="0" result="BackgroundImageFix"/>
<feColorMatrix in="SourceAlpha" type="matrix" values="0 0 0 0 0 0 0 0 0 0 0 0 0 0 0 0 0 0 127 0" result="hardAlpha"/>
<feOffset dy="4"/>
<feGaussianBlur stdDeviation="21.6"/>
<feComposite in2="hardAlpha" operator="out"/>
<feColorMatrix type="matrix" values="0 0 0 0 0.843137 0 0 0 0 0.109804 0 0 0 0 0.137255 0 0 0 0.25 0"/>
<feBlend mode="normal" in2="BackgroundImageFix" result="effect1_dropShadow_2513_28"/>
<feBlend mode="normal" in="SourceGraphic" in2="effect1_dropShadow_2513_28" result="shape"/>
</filter>
<filter id="filter1_d_2513_28" x="-2.2" y="0.799999" width="422.4" height="123.4" filterUnits="userSpaceOnUse" color-interpolation-filters="sRGB">
<feFlood flood-opacity="0" result="BackgroundImageFix"/>
<feColorMatrix in="SourceAlpha" type="matrix" values="0 0 0 0 0 0 0 0 0 0 0 0 0 0 0 0 0 0 127 0" result="hardAlpha"/>
<feOffset dy="4"/>
<feGaussianBlur stdDeviation="21.6"/>
<feComposite in2="hardAlpha" operator="out"/>
<feColorMatrix type="matrix" values="0 0 0 0 0.843137 0 0 0 0 0.109804 0 0 0 0 0.137255 0 0 0 0.25 0"/>
<feBlend mode="normal" in2="BackgroundImageFix" result="effect1_dropShadow_2513_28"/>
<feBlend mode="normal" in="SourceGraphic" in2="effect1_dropShadow_2513_28" result="shape"/>
</filter>
<linearGradient id="paint0_linear_2513_28" x1="204.902" y1="43.5155" x2="204.902" y2="68.1237" gradientUnits="userSpaceOnUse">
<stop stop-color="#D71C23"/>
<stop offset="1" stop-color="#D71C23" stop-opacity="0.55"/>
</linearGradient>
<linearGradient id="paint1_linear_2513_28" x1="204.902" y1="44.1959" x2="204.902" y2="73.567" gradientUnits="userSpaceOnUse">
<stop stop-color="#D71C23"/>
<stop offset="1" stop-color="#D71C23" stop-opacity="0.55"/>
</linearGradient>
</defs>
</svg>
