<svg width="210" height="127" viewBox="0 0 210 127" fill="none" xmlns="http://www.w3.org/2000/svg">
<g filter="url(#filter0_d_2452_206)">
<path fill-rule="evenodd" clip-rule="evenodd" d="M55.8281 40.0669C55.5344 40.1146 54.0721 40.1358 52.5783 40.1138C50.616 40.085 49.5386 40.1195 48.6952 40.2383C48.0532 40.3287 47.0619 40.4026 46.4922 40.4026C45.13 40.4026 44.8347 40.6318 44.7637 41.7437C44.7335 42.2197 44.5806 42.8513 44.4241 43.1473C44.2272 43.5198 44.2245 43.9673 44.415 44.6004C44.6157 45.2677 44.6022 45.7485 44.3651 46.3764C44.0001 47.3433 44.1123 49.7113 44.5525 50.329C44.7446 50.5983 44.7624 51.2704 44.6068 52.3798C44.129 55.7902 43.9891 58.5688 44.0665 63.1138C44.1102 65.689 44.1344 68.0866 44.1204 68.4418C44.1064 68.797 44.063 70.904 44.0244 73.124C43.9605 76.8062 43.9971 77.2048 44.4438 77.6666C44.9401 78.1798 45.2056 78.2589 46.6605 78.3265C47.107 78.3472 47.7654 78.4268 48.1241 78.5034C48.6242 78.6102 49.6282 78.6231 52.4343 78.5591C54.4463 78.513 56.2745 78.4827 56.4971 78.4915C56.7196 78.5002 61.901 78.5346 68.0111 78.5679C76.0644 78.6117 79.2786 78.5946 79.6945 78.5058C80.0703 78.4256 80.3791 78.4194 80.5884 78.4878C81.0397 78.6354 81.8476 78.6663 82.8319 78.5737C84.146 78.4501 94.6005 78.4056 95.1422 78.5213C95.4046 78.5774 97.286 78.6498 99.3231 78.6822C103.889 78.7551 104.233 78.7499 104.677 78.6028C104.911 78.5256 105.527 78.5132 106.458 78.5671C107.241 78.6126 108.853 78.6434 110.04 78.6357C111.227 78.628 113.23 78.6142 114.491 78.605C115.752 78.5959 117.108 78.6398 117.505 78.7028C117.991 78.7798 118.995 78.7855 120.584 78.7201C121.882 78.6666 123.048 78.6488 123.175 78.6804C123.304 78.7119 125.134 78.7593 127.244 78.7855C129.354 78.8118 132.233 78.8599 133.642 78.8926C135.052 78.9253 137.722 78.9433 139.576 78.9329C141.431 78.9223 143.13 78.9215 143.353 78.9309C145.428 79.0187 153.422 79.0245 154.277 78.9388C154.871 78.8793 155.842 78.8116 156.436 78.7881C157.029 78.7648 158.025 78.6847 158.649 78.6102C159.628 78.4931 159.875 78.4988 160.459 78.6516C161.462 78.9137 162.396 78.8686 163.767 78.4923C164.596 78.2646 165.169 77.9962 165.541 77.6611C166.06 77.1924 166.079 77.04 165.892 74.7953C165.784 73.4912 165.714 72.078 165.737 71.6545C165.762 71.1924 165.642 70.7976 165.438 70.6669C165.189 70.5082 165.173 70.3811 165.377 70.1989C165.766 69.8515 165.841 66.3423 165.478 65.4414C165.314 65.0344 165.008 64.568 164.796 64.405C164.45 64.1375 164.462 64.0908 164.921 63.925C165.997 63.5364 165.909 61.585 164.739 59.9021C164.362 59.3582 164.374 59.2862 164.965 58.5566C165.474 57.9306 165.584 57.5736 165.552 56.6557C165.503 55.2101 165.222 51.2792 165.083 50.0899C165.025 49.5867 165.077 48.7353 165.199 48.1978C165.326 47.6404 165.314 46.8372 165.171 46.3278C165.021 45.793 165.019 45.3863 165.166 45.3136C165.434 45.1809 165.354 42.1599 165.068 41.6404C164.666 40.907 164.444 40.8332 162.647 40.8332C161.738 40.8332 160.852 40.7765 160.679 40.7074C160.489 40.632 159.147 40.5654 157.32 40.5407C153.961 40.4954 138.817 40.4194 133.103 40.4192C131.1 40.4192 126.184 40.4194 122.178 40.4197C118.173 40.4202 112.67 40.3897 109.949 40.3521C106.314 40.3021 104.902 40.3178 104.618 40.4115C104.363 40.4963 103.804 40.5136 102.956 40.4632C101.858 40.398 98.2048 40.3798 94.3953 40.4206C93.2826 40.4325 87.9744 40.3532 83.4709 40.2575C82.0615 40.2275 77.6181 40.1686 73.5968 40.1265C67.8886 40.0669 66.2397 40.0795 66.0779 40.184C65.9152 40.289 65.8216 40.2864 65.6447 40.172C65.4715 40.0599 64.3645 40.0205 60.8906 40.003C58.4001 39.9904 56.1219 40.0191 55.8281 40.0669Z" fill="url(#paint0_linear_2452_206)" shape-rendering="crispEdges"/>
</g>
<defs>
<filter id="filter0_d_2452_206" x="0.799999" y="0.799999" width="208.4" height="125.4" filterUnits="userSpaceOnUse" color-interpolation-filters="sRGB">
<feFlood flood-opacity="0" result="BackgroundImageFix"/>
<feColorMatrix in="SourceAlpha" type="matrix" values="0 0 0 0 0 0 0 0 0 0 0 0 0 0 0 0 0 0 127 0" result="hardAlpha"/>
<feOffset dy="4"/>
<feGaussianBlur stdDeviation="21.6"/>
<feComposite in2="hardAlpha" operator="out"/>
<feColorMatrix type="matrix" values="0 0 0 0 0.843137 0 0 0 0 0.109804 0 0 0 0 0.137255 0 0 0 0.25 0"/>
<feBlend mode="normal" in2="BackgroundImageFix" result="effect1_dropShadow_2452_206"/>
<feBlend mode="normal" in="SourceGraphic" in2="effect1_dropShadow_2452_206" result="shape"/>
</filter>
<linearGradient id="paint0_linear_2452_206" x1="103.512" y1="44.4227" x2="103.512" y2="75.3814" gradientUnits="userSpaceOnUse">
<stop stop-color="#D71C23"/>
<stop offset="1" stop-color="#D71C23" stop-opacity="0.55"/>
</linearGradient>
</defs>
</svg>
