<svg width="420" height="154" viewBox="0 0 420 154" fill="none" xmlns="http://www.w3.org/2000/svg">
<g filter="url(#filter0_d_2515_69)">
<path fill-rule="evenodd" clip-rule="evenodd" d="M76.188 40.1132C75.3886 40.1939 71.4094 40.2298 67.3443 40.1926C62.0041 40.1438 59.0724 40.2023 56.777 40.4032C55.03 40.5562 52.3324 40.6813 50.7821 40.6813C47.0752 40.6813 46.2714 41.0692 46.0784 42.9508C45.9962 43.7565 45.58 44.8253 45.1542 45.3263C44.6184 45.9565 44.611 46.7139 45.1293 47.7853C45.6754 48.9145 45.6387 49.7282 44.9935 50.7909C44.0003 52.4271 44.3057 56.4345 45.5036 57.4799C46.0263 57.9356 46.0747 59.073 45.6512 60.9505C44.3512 66.7218 43.9702 71.4241 44.1809 79.1157C44.2998 83.4737 44.3659 87.5312 44.3277 88.1323C44.2895 88.7334 44.1713 92.2991 44.0664 96.056C43.8924 102.287 43.9922 102.962 45.2078 103.743C46.5584 104.612 47.2807 104.746 51.2401 104.86C52.455 104.895 54.2468 105.03 55.2231 105.16C56.584 105.34 59.3161 105.362 66.9523 105.254C72.4275 105.176 77.4028 105.124 78.0084 105.139C78.614 105.154 92.7142 105.212 109.342 105.269C131.257 105.343 140.004 105.314 141.136 105.164C142.158 105.028 142.999 105.017 143.569 105.133C144.797 105.383 146.995 105.435 149.674 105.279C153.25 105.069 181.7 104.994 183.174 105.19C183.888 105.285 189.008 105.407 194.551 105.462C206.976 105.586 207.913 105.577 209.122 105.328C209.757 105.197 211.433 105.176 213.968 105.267C216.099 105.344 220.486 105.396 223.716 105.384C226.945 105.37 232.396 105.347 235.827 105.332C239.259 105.316 242.95 105.39 244.029 105.497C245.352 105.627 248.085 105.637 252.41 105.526C255.94 105.436 259.113 105.406 259.461 105.459C259.81 105.512 264.792 105.593 270.533 105.637C276.274 105.682 284.109 105.763 287.944 105.818C291.78 105.874 299.047 105.904 304.093 105.886C309.14 105.869 313.764 105.867 314.37 105.883C320.018 106.032 341.772 106.041 344.098 105.896C345.713 105.796 348.356 105.681 349.973 105.641C351.588 105.602 354.299 105.466 355.995 105.34C358.659 105.142 359.331 105.152 360.922 105.41C363.65 105.854 366.193 105.778 369.923 105.141C372.181 104.755 373.738 104.301 374.75 103.734C376.163 102.941 376.214 102.683 375.706 98.8843C375.411 96.6775 375.221 94.2858 375.283 93.5692C375.352 92.7871 375.026 92.1191 374.469 91.8978C373.794 91.6293 373.749 91.4142 374.305 91.1058C375.363 90.518 375.567 84.5792 374.58 83.0546C374.134 82.3659 373.299 81.5766 372.724 81.3008C371.781 80.848 371.814 80.7691 373.064 80.4884C375.992 79.8309 375.752 76.5284 372.57 73.6804C371.541 72.76 371.574 72.6382 373.185 71.4035C374.568 70.3441 374.868 69.7399 374.782 68.1865C374.648 65.7402 373.884 59.0879 373.505 57.0752C373.345 56.2236 373.487 54.7828 373.82 53.8733C374.166 52.9299 374.134 51.5707 373.745 50.7085C373.337 49.8036 373.331 49.1152 373.73 48.9923C374.459 48.7677 374.242 43.6552 373.465 42.7761C372.368 41.5349 371.766 41.41 366.876 41.41C364.401 41.41 361.99 41.3141 361.519 41.1972C361.004 41.0695 357.351 40.9568 352.38 40.9151C343.237 40.8384 302.027 40.7098 286.476 40.7094C281.026 40.7094 267.648 40.7098 256.747 40.7103C245.847 40.711 230.872 40.6595 223.469 40.5959C213.576 40.5112 209.732 40.5378 208.961 40.6965C208.265 40.8398 206.746 40.8691 204.437 40.7839C201.451 40.6735 191.508 40.6427 181.141 40.7118C178.113 40.732 163.668 40.5977 151.413 40.4358C147.577 40.385 135.485 40.2853 124.542 40.2141C109.008 40.1132 104.521 40.1345 104.081 40.3114C103.638 40.489 103.383 40.4846 102.902 40.291C102.431 40.1014 99.4182 40.0347 89.9645 40.005C83.1871 39.9837 76.9874 40.0323 76.188 40.1132Z" fill="url(#paint0_radial_2515_69)" fill-opacity="0.25" shape-rendering="crispEdges"/>
</g>
<path d="M107.748 45.7815C107.872 45.7392 108.052 45.721 108.227 45.7078C108.426 45.6928 108.697 45.6803 109.05 45.6699C109.755 45.649 110.809 45.6358 112.313 45.6298C115.321 45.6176 120.148 45.6339 127.634 45.6752C138.181 45.7335 149.837 45.815 153.536 45.8566C165.35 45.9891 179.268 46.0989 182.181 46.0824L182.184 46.5824L182.181 46.0824C192.171 46.0259 201.764 46.051 204.653 46.1416C206.891 46.2117 208.302 46.1841 208.913 46.0773L208.913 46.0773C209.139 46.0378 209.545 46.0118 210.14 45.9927C210.748 45.9733 211.583 45.9606 212.69 45.954C214.905 45.941 218.218 45.9529 222.986 45.9876L222.982 46.4876L222.986 45.9876C230.119 46.0396 244.552 46.0818 255.058 46.0812C265.564 46.0807 278.459 46.0804 283.712 46.0804C298.702 46.0807 338.423 46.1859 347.237 46.2487C349.635 46.2658 351.716 46.2974 353.262 46.3379C354.034 46.3581 354.675 46.3807 355.155 46.4048C355.616 46.428 355.974 46.4542 356.145 46.4903C356.218 46.5056 356.413 46.527 356.738 46.5482C357.049 46.5685 357.451 46.5871 357.917 46.6027C358.846 46.6341 360.018 46.6536 361.206 46.6536C363.546 46.6536 364.92 46.6774 365.839 46.8392C366.312 46.9225 366.686 47.0452 367.022 47.2303C367.356 47.4137 367.627 47.6454 367.903 47.9108L367.557 48.2714L367.903 47.9108C368.07 48.071 368.187 48.2891 368.273 48.4976C368.363 48.7149 368.438 48.9666 368.499 49.2317C368.62 49.7626 368.698 50.3886 368.728 50.9901C368.758 51.5893 368.742 52.1889 368.668 52.6639C368.631 52.8985 368.576 53.1293 368.49 53.3208C368.422 53.4718 368.286 53.7062 368.027 53.8116C368.027 53.8125 368.027 53.8135 368.027 53.8145C368.029 53.9466 368.089 54.1901 368.268 54.5268C368.5 54.9637 368.614 55.4981 368.628 56.0172C368.643 56.5376 368.559 57.0835 368.358 57.549C368.222 57.8645 368.117 58.2951 368.066 58.736C368.014 59.1804 368.023 59.5885 368.084 59.8626C368.455 61.5385 369.194 67.007 369.325 69.0292C369.369 69.7004 369.322 70.2625 369.019 70.7818C368.726 71.2814 368.232 71.6752 367.559 72.1129C367.167 72.3678 366.895 72.5508 366.71 72.6969C366.649 72.7457 366.605 72.7842 366.575 72.8134C366.655 72.8923 366.786 72.9988 366.996 73.1586C368.576 74.3583 369.533 75.7302 369.639 76.9713C369.693 77.6107 369.519 78.2121 369.09 78.6909C368.711 79.1132 368.167 79.4053 367.496 79.5678C367.699 79.6911 367.904 79.8378 368.096 79.9924C368.443 80.2704 368.783 80.601 369.029 80.9231L369.029 80.9234C369.346 81.3396 369.527 81.983 369.629 82.6375C369.734 83.3137 369.767 84.0862 369.738 84.8277C369.708 85.5673 369.614 86.2982 369.454 86.8878C369.375 87.1817 369.274 87.458 369.146 87.6874C369.074 87.8159 368.984 87.9489 368.868 88.0622C369.545 88.3842 369.885 89.1186 369.807 89.8804C369.782 90.1165 369.807 90.7032 369.882 91.4998C369.954 92.2773 370.07 93.2075 370.211 94.1002C370.333 94.8749 370.424 95.4866 370.469 95.9722C370.513 96.4522 370.517 96.8556 370.437 97.1974C370.352 97.566 370.174 97.8437 369.906 98.071C369.661 98.2782 369.346 98.4376 369.01 98.5975L368.795 98.1461L369.01 98.5975C367.964 99.0956 366.4 99.4752 364.214 99.7919C360.589 100.317 358.088 100.384 355.398 100.013C353.913 99.8079 353.302 99.7981 350.749 99.9593C349.108 100.063 346.489 100.174 344.924 100.207C343.371 100.239 340.829 100.332 339.278 100.415C337.015 100.534 316.03 100.526 310.586 100.404C310.011 100.391 305.563 100.392 300.694 100.407C295.828 100.422 288.821 100.397 285.121 100.351C281.425 100.306 273.874 100.239 268.342 100.203C265.574 100.185 262.989 100.159 261.053 100.133C260.086 100.12 259.279 100.106 258.693 100.093C258.129 100.081 257.728 100.069 257.609 100.053C257.609 100.053 257.605 100.053 257.595 100.052C257.585 100.051 257.571 100.05 257.553 100.049C257.517 100.047 257.47 100.046 257.411 100.044C257.293 100.041 257.137 100.039 256.945 100.037C256.562 100.035 256.044 100.036 255.429 100.041C254.2 100.051 252.587 100.075 250.888 100.112C246.725 100.203 244.064 100.196 242.758 100.087L242.799 99.5884L242.758 100.087C241.743 100.002 238.208 99.9404 234.896 99.9531C231.588 99.9658 226.335 99.9849 223.222 99.9956C220.105 100.006 215.871 99.9636 213.809 99.9004C212.591 99.8632 211.584 99.849 210.808 99.8572C210.02 99.8656 209.501 99.897 209.24 99.9425C208.615 100.052 208.065 100.105 206.189 100.119C204.316 100.134 201.091 100.11 195.106 100.06C192.432 100.038 189.861 100.001 187.871 99.9608C185.899 99.9207 184.461 99.8762 184.087 99.834C183.941 99.8175 183.389 99.8008 182.482 99.7872C181.592 99.7739 180.393 99.7639 178.981 99.7569C176.158 99.7428 172.491 99.7408 168.76 99.7492C161.288 99.766 153.587 99.8243 151.879 99.9091C149.292 100.038 147.126 99.9979 145.885 99.7835L145.97 99.2908L145.885 99.7835C145.405 99.7007 144.65 99.7034 143.681 99.8126C143.1 99.878 140.679 99.9139 135.816 99.9276C130.93 99.9413 123.54 99.932 112.979 99.9017C96.9571 99.8557 83.3585 99.808 82.7689 99.7958L82.7687 99.7958C82.1958 99.7838 77.4129 99.8256 72.1287 99.8895C64.7867 99.9779 62.1124 99.9616 60.7614 99.8093L60.7614 99.8093C59.8379 99.7051 58.1258 99.5958 56.9662 99.5673C55.0655 99.5207 53.9031 99.4698 53.0507 99.3359C52.1675 99.1971 51.6133 98.9685 50.9246 98.5926M107.748 45.7815L143.625 99.3157C142.534 99.4387 134.103 99.4624 112.98 99.4017C96.9534 99.3557 83.3629 99.308 82.7792 99.2959C82.1955 99.2837 77.4 99.3257 72.1227 99.3895C64.7625 99.4782 62.1291 99.4603 60.8174 99.3124C59.8764 99.2063 58.1494 99.0962 56.9785 99.0674C53.1621 98.9738 52.466 98.8643 51.1641 98.1537C49.9925 97.5143 49.8963 96.9625 50.064 91.864M107.748 45.7815C107.563 45.8443 107.456 45.8618 107.362 45.8604C107.265 45.859 107.145 45.8368 106.935 45.7649M107.748 45.7815L106.935 45.7649M50.9246 98.5926L51.164 98.1539L50.9246 98.5926C50.9246 98.5926 50.9246 98.5926 50.9246 98.5926ZM50.9246 98.5926C50.6122 98.4221 50.3137 98.2278 50.0789 97.9241C49.8415 97.6172 49.7025 97.2432 49.6193 96.7671C49.4587 95.8486 49.4812 94.3736 49.5642 91.8475L50.064 91.864M50.064 91.864C50.1651 88.7901 50.279 85.8728 50.3158 85.381C50.3526 84.8892 50.289 81.5694 50.1743 78.0038C49.9713 71.7106 50.3385 67.8633 51.5915 63.1413L50.654 52.6174C50.8907 53.0327 50.9681 53.3332 50.9543 53.5932C50.9405 53.8536 50.8312 54.1461 50.5509 54.538L50.5508 54.5381C49.9692 55.3516 49.8111 56.6518 49.9134 57.7913C49.9659 58.3757 50.0896 58.9551 50.2849 59.4558C50.4768 59.9475 50.7564 60.4107 51.1517 60.7035L51.1518 60.7036C51.2334 60.764 51.3431 60.9128 51.363 61.3103C51.3828 61.7063 51.3069 62.2652 51.1082 63.0129L51.1082 63.0131C49.8397 67.7934 49.4704 71.6913 49.6746 78.0199C49.7318 79.8009 49.7764 81.5201 49.802 82.8547C49.8279 84.2067 49.8334 85.1277 49.8172 85.3437C49.7794 85.8488 49.6652 88.7802 49.5642 91.8475L50.064 91.864ZM106.935 45.7649C106.823 45.727 106.682 45.7046 106.538 45.6878M106.935 45.7649L106.538 45.6878M62.2781 45.8313L62.2781 45.8313C64.5128 45.6652 67.3566 45.6177 72.5044 45.6576C76.4347 45.6881 80.2404 45.658 80.9818 45.5945L62.2781 45.8313ZM62.2781 45.8313C60.605 45.9557 58.0174 46.0575 56.537 46.0575C55.6393 46.0575 54.9025 46.0773 54.3011 46.1333C53.7034 46.1889 53.2091 46.2826 52.8105 46.4459C52.399 46.6144 52.0833 46.8599 51.8643 47.2088C51.6532 47.5449 51.5573 47.9372 51.5069 48.3543L51.5068 48.3546M62.2781 45.8313L51.5068 48.3546M51.5068 48.3546C51.475 48.6197 51.3737 48.9523 51.2275 49.2712M51.5068 48.3546L51.2275 49.2712M51.2275 49.2712C51.0798 49.5935 50.9068 49.8566 50.7592 50.004M51.2275 49.2712L50.7592 50.004M50.7592 50.004C50.4227 50.34 50.2252 50.7441 50.2195 51.2226M50.7592 50.004L50.2195 51.2226M50.2195 51.2226C50.2141 51.6776 50.3835 52.1425 50.654 52.6173L50.2195 51.2226ZM106.538 45.6878C106.384 45.6698 106.187 45.6542 105.943 45.6403M106.538 45.6878L105.943 45.6403M105.943 45.6403C105.455 45.6124 104.757 45.5902 103.794 45.5721M105.943 45.6403L103.794 45.5721M103.794 45.5721C101.868 45.536 98.8601 45.5162 94.3044 45.5041M103.794 45.5721L94.3044 45.5041M94.3044 45.5041C87.79 45.4867 81.7815 45.5258 80.9819 45.5945L94.3044 45.5041Z" stroke="white" stroke-opacity="0.25"/>
<defs>
<filter id="filter0_d_2515_69" x="0.799999" y="0.799999" width="418.4" height="152.4" filterUnits="userSpaceOnUse" color-interpolation-filters="sRGB">
<feFlood flood-opacity="0" result="BackgroundImageFix"/>
<feColorMatrix in="SourceAlpha" type="matrix" values="0 0 0 0 0 0 0 0 0 0 0 0 0 0 0 0 0 0 127 0" result="hardAlpha"/>
<feOffset dy="4"/>
<feGaussianBlur stdDeviation="21.6"/>
<feComposite in2="hardAlpha" operator="out"/>
<feColorMatrix type="matrix" values="0 0 0 0 1 0 0 0 0 1 0 0 0 0 1 0 0 0 0.05 0"/>
<feBlend mode="normal" in2="BackgroundImageFix" result="effect1_dropShadow_2515_69"/>
<feBlend mode="normal" in="SourceGraphic" in2="effect1_dropShadow_2515_69" result="shape"/>
</filter>
<radialGradient id="paint0_radial_2515_69" cx="0" cy="0" r="1" gradientUnits="userSpaceOnUse" gradientTransform="translate(205.951 73.6804) rotate(90) scale(32.3196 14.2186)">
<stop stop-color="#B5B5B5"/>
<stop offset="1" stop-color="#FFFFFD" stop-opacity="0.33"/>
</radialGradient>
</defs>
</svg>
