<svg width="464" height="151" viewBox="0 0 464 151" fill="none" xmlns="http://www.w3.org/2000/svg">
<g filter="url(#filter0_d_2559_86)">
<path fill-rule="evenodd" clip-rule="evenodd" d="M80.4539 40.0926C79.5486 40.1586 75.042 40.188 70.4381 40.1576C64.3902 40.1177 61.0699 40.1655 58.4704 40.3299C56.4918 40.4551 53.4367 40.5575 51.6809 40.5575C47.4828 40.5575 46.5725 40.8748 46.3538 42.4143C46.2607 43.0735 45.7893 43.948 45.3072 44.3578C44.7003 44.8735 44.692 45.4932 45.2789 46.3698C45.8974 47.2937 45.8559 47.9594 45.1251 48.8289C44.0003 50.1677 44.3462 53.4464 45.7029 54.3017C46.2948 54.6746 46.3497 55.6052 45.87 57.1413C44.3977 61.8633 43.9663 65.7106 44.2048 72.0038C44.3395 75.5694 44.4143 78.8892 44.3711 79.381C44.3279 79.8728 44.194 82.7901 44.0752 85.864C43.8781 90.9625 43.9912 91.5143 45.3679 92.1537C46.8975 92.8643 47.7155 92.9738 52.1997 93.0674C53.5755 93.0962 55.6048 93.2063 56.7104 93.3124C58.2517 93.4603 61.3459 93.4782 69.9942 93.3895C76.195 93.3257 81.8297 93.2837 82.5156 93.2959C83.2014 93.308 99.1703 93.3557 118.001 93.4017C142.821 93.4624 152.727 93.4387 154.009 93.3157C155.167 93.2047 156.119 93.196 156.764 93.2908C158.155 93.4952 160.645 93.5379 163.679 93.4098C167.729 93.2387 199.949 93.177 201.618 93.3372C202.427 93.4148 208.226 93.5151 214.504 93.56C228.575 93.6609 229.637 93.6537 231.006 93.45C231.725 93.3431 233.623 93.326 236.493 93.4007C238.908 93.4636 243.875 93.5062 247.533 93.4956C251.191 93.4849 257.364 93.4658 261.25 93.4531C265.137 93.4405 269.316 93.5013 270.539 93.5884C272.037 93.6952 275.132 93.7031 280.031 93.6124C284.028 93.5384 287.622 93.5138 288.016 93.5574C288.411 93.6011 294.053 93.6667 300.555 93.7031C307.057 93.7394 315.93 93.806 320.274 93.8513C324.618 93.8965 332.848 93.9215 338.563 93.9071C344.279 93.8925 349.516 93.8913 350.202 93.9043C356.599 94.0259 381.236 94.0339 383.87 93.9153C385.699 93.8329 388.693 93.7391 390.523 93.7066C392.353 93.6743 395.422 93.5634 397.344 93.4603C400.361 93.2981 401.122 93.306 402.924 93.5177C406.013 93.8806 408.893 93.8181 413.117 93.2971C415.674 92.9817 417.438 92.6102 418.584 92.1461C420.185 91.4972 420.242 91.2862 419.667 88.178C419.333 86.3725 419.118 84.4157 419.188 83.8294C419.266 83.1894 418.897 82.6429 418.266 82.4618C417.502 82.2421 417.451 82.0661 418.08 81.8138C419.279 81.3329 419.509 76.4739 418.392 75.2265C417.887 74.663 416.941 74.0172 416.29 73.7916C415.222 73.4211 415.26 73.3566 416.674 73.1269C419.991 72.5889 419.72 69.8869 416.115 67.5567C414.95 66.8037 414.988 66.7039 416.812 65.6938C418.378 64.827 418.718 64.3327 418.621 63.0617C418.468 61.0602 417.603 55.6174 417.175 53.9706C416.994 53.2738 417.154 52.095 417.532 51.3509C417.923 50.579 417.887 49.4669 417.446 48.7615C416.984 48.0211 416.977 47.4579 417.429 47.3573C418.255 47.1736 418.009 42.9906 417.129 42.2714C415.887 41.2558 415.205 41.1536 409.667 41.1536C406.864 41.1536 404.133 41.0752 403.599 40.9795C403.017 40.8751 398.879 40.7828 393.249 40.7487C382.895 40.6859 336.224 40.5807 318.612 40.5804C312.439 40.5804 297.288 40.5807 284.943 40.5812C272.598 40.5818 255.638 40.5396 247.254 40.4876C236.05 40.4183 231.697 40.44 230.824 40.5698C230.036 40.6871 228.315 40.7111 225.699 40.6414C222.318 40.5511 211.057 40.5259 199.317 40.5824C195.887 40.5989 179.528 40.4891 165.648 40.3566C161.304 40.315 147.61 40.2335 135.216 40.1752C117.624 40.0926 112.542 40.1101 112.043 40.2548C111.542 40.4001 111.254 40.3965 110.708 40.2381C110.175 40.0829 106.763 40.0284 96.0562 40.0041C88.3806 39.9867 81.3592 40.0265 80.4539 40.0926Z" fill="url(#paint0_linear_2559_86)" shape-rendering="crispEdges"/>
</g>
<g filter="url(#filter1_d_2559_86)">
<path fill-rule="evenodd" clip-rule="evenodd" d="M80.4539 49.0926C79.5486 49.1586 75.042 49.188 70.4381 49.1576C64.3902 49.1177 61.0699 49.1655 58.4704 49.3299C56.4918 49.4551 53.4367 49.5575 51.6809 49.5575C47.4828 49.5575 46.5725 49.8748 46.3538 51.4143C46.2607 52.0735 45.7893 52.948 45.3072 53.3578C44.7003 53.8735 44.692 54.4932 45.2789 55.3698C45.8974 56.2937 45.8559 56.9594 45.1251 57.8289C44.0003 59.1677 44.3462 62.4464 45.7029 63.3017C46.2948 63.6746 46.3497 64.6052 45.87 66.1413C44.3977 70.8633 43.9663 74.7106 44.2048 81.0038C44.3395 84.5694 44.4143 87.8892 44.3711 88.381C44.3279 88.8728 44.194 91.7901 44.0752 94.864C43.8781 99.9625 43.9912 100.514 45.3679 101.154C46.8975 101.864 47.7155 101.974 52.1997 102.067C53.5755 102.096 55.6048 102.206 56.7104 102.312C58.2517 102.46 61.3459 102.478 69.9942 102.389C76.195 102.326 81.8297 102.284 82.5156 102.296C83.2014 102.308 99.1703 102.356 118.001 102.402C142.821 102.462 152.727 102.439 154.009 102.316C155.167 102.205 156.119 102.196 156.764 102.291C158.155 102.495 160.645 102.538 163.679 102.41C167.729 102.239 199.949 102.177 201.618 102.337C202.427 102.415 208.226 102.515 214.504 102.56C228.575 102.661 229.637 102.654 231.006 102.45C231.725 102.343 233.623 102.326 236.493 102.401C238.908 102.464 243.875 102.506 247.533 102.496C251.191 102.485 257.364 102.466 261.25 102.453C265.137 102.44 269.316 102.501 270.539 102.588C272.037 102.695 275.132 102.703 280.031 102.612C284.028 102.538 287.622 102.514 288.016 102.557C288.411 102.601 294.053 102.667 300.555 102.703C307.057 102.739 315.93 102.806 320.274 102.851C324.618 102.897 332.848 102.922 338.563 102.907C344.279 102.892 349.516 102.891 350.202 102.904C356.599 103.026 381.236 103.034 383.87 102.915C385.699 102.833 388.693 102.739 390.523 102.707C392.353 102.674 395.422 102.563 397.344 102.46C400.361 102.298 401.122 102.306 402.924 102.518C406.013 102.881 408.893 102.818 413.117 102.297C415.674 101.982 417.438 101.61 418.584 101.146C420.185 100.497 420.242 100.286 419.667 97.178C419.333 95.3725 419.118 93.4157 419.188 92.8294C419.266 92.1894 418.897 91.6429 418.266 91.4618C417.502 91.2421 417.451 91.0661 418.08 90.8138C419.279 90.3329 419.509 85.4739 418.392 84.2265C417.887 83.663 416.941 83.0172 416.29 82.7916C415.222 82.4211 415.26 82.3566 416.674 82.1269C419.991 81.5889 419.72 78.8869 416.115 76.5567C414.95 75.8037 414.988 75.7039 416.812 74.6938C418.378 73.827 418.718 73.3327 418.621 72.0617C418.468 70.0602 417.603 64.6174 417.175 62.9706C416.994 62.2738 417.154 61.095 417.532 60.3509C417.923 59.579 417.887 58.4669 417.446 57.7615C416.984 57.0211 416.977 56.4579 417.429 56.3573C418.255 56.1736 418.009 51.9906 417.129 51.2714C415.887 50.2558 415.205 50.1536 409.667 50.1536C406.864 50.1536 404.133 50.0752 403.599 49.9795C403.017 49.8751 398.879 49.7828 393.249 49.7487C382.895 49.6859 336.224 49.5807 318.612 49.5804C312.439 49.5804 297.288 49.5807 284.943 49.5812C272.598 49.5818 255.638 49.5396 247.254 49.4876C236.05 49.4183 231.697 49.44 230.824 49.5698C230.036 49.6871 228.315 49.7111 225.699 49.6414C222.318 49.5511 211.057 49.5259 199.317 49.5824C195.887 49.5989 179.528 49.4891 165.648 49.3566C161.304 49.315 147.61 49.2335 135.216 49.1752C117.624 49.0926 112.542 49.1101 112.043 49.2548C111.542 49.4001 111.254 49.3965 110.708 49.2381C110.175 49.0829 106.763 49.0284 96.0562 49.0041C88.3806 48.9867 81.3592 49.0265 80.4539 49.0926Z" fill="url(#paint1_linear_2559_86)" shape-rendering="crispEdges"/>
</g>
<defs>
<filter id="filter0_d_2559_86" x="0.799999" y="0.799999" width="462.4" height="140.4" filterUnits="userSpaceOnUse" color-interpolation-filters="sRGB">
<feFlood flood-opacity="0" result="BackgroundImageFix"/>
<feColorMatrix in="SourceAlpha" type="matrix" values="0 0 0 0 0 0 0 0 0 0 0 0 0 0 0 0 0 0 127 0" result="hardAlpha"/>
<feOffset dy="4"/>
<feGaussianBlur stdDeviation="21.6"/>
<feComposite in2="hardAlpha" operator="out"/>
<feColorMatrix type="matrix" values="0 0 0 0 0.843137 0 0 0 0 0.109804 0 0 0 0 0.137255 0 0 0 0.25 0"/>
<feBlend mode="normal" in2="BackgroundImageFix" result="effect1_dropShadow_2559_86"/>
<feBlend mode="normal" in="SourceGraphic" in2="effect1_dropShadow_2559_86" result="shape"/>
</filter>
<filter id="filter1_d_2559_86" x="0.799999" y="9.8" width="462.4" height="140.4" filterUnits="userSpaceOnUse" color-interpolation-filters="sRGB">
<feFlood flood-opacity="0" result="BackgroundImageFix"/>
<feColorMatrix in="SourceAlpha" type="matrix" values="0 0 0 0 0 0 0 0 0 0 0 0 0 0 0 0 0 0 127 0" result="hardAlpha"/>
<feOffset dy="4"/>
<feGaussianBlur stdDeviation="21.6"/>
<feComposite in2="hardAlpha" operator="out"/>
<feColorMatrix type="matrix" values="0 0 0 0 0.843137 0 0 0 0 0.109804 0 0 0 0 0.137255 0 0 0 0.25 0"/>
<feBlend mode="normal" in2="BackgroundImageFix" result="effect1_dropShadow_2559_86"/>
<feBlend mode="normal" in="SourceGraphic" in2="effect1_dropShadow_2559_86" result="shape"/>
</filter>
<linearGradient id="paint0_linear_2559_86" x1="227.415" y1="46.1237" x2="227.415" y2="88.9897" gradientUnits="userSpaceOnUse">
<stop stop-color="#D71C23"/>
<stop offset="1" stop-color="#D71C23" stop-opacity="0.55"/>
</linearGradient>
<linearGradient id="paint1_linear_2559_86" x1="227.415" y1="55.1237" x2="227.415" y2="97.9897" gradientUnits="userSpaceOnUse">
<stop stop-color="#D71C23"/>
<stop offset="1" stop-color="#D71C23" stop-opacity="0.55"/>
</linearGradient>
</defs>
</svg>
