<svg width="373" height="460" viewBox="0 0 373 460" fill="none" xmlns="http://www.w3.org/2000/svg">
<path d="M15.0391 3.35866L15.039 3.35872C14.1021 3.8683 12.8958 4.3384 11.7075 4.68077C10.5137 5.02472 9.37805 5.22814 8.5788 5.22814C7.49544 5.22814 6.54677 5.40283 5.75885 5.93938C4.96722 6.47846 4.40902 7.33376 4.00389 8.54759C3.20542 10.9399 2.93011 14.9604 2.82258 21.4685L2.82258 21.4685C2.73087 27.0496 2.26637 34.4449 1.79441 37.8932C1.1886 42.318 1.18316 47.6145 1.76342 55.0643C2.37156 62.8727 2.33054 68.4898 1.61253 75.8334L2.11016 75.882L1.61253 75.8334C1.05483 81.5393 0.863089 91.3528 0.977049 100.635C1.09086 109.904 1.51009 118.714 2.18855 122.391L2.18856 122.391C2.47168 123.924 2.63181 126.648 2.65919 130.645C2.6865 134.632 2.58198 139.854 2.34545 146.365L2.84512 146.384L2.34545 146.365C0.892439 186.424 0.466686 219.062 0.702124 272.442C0.835019 302.686 0.908805 330.837 0.866199 335.004C0.823526 339.177 0.691457 363.922 0.574162 389.992C0.476975 411.61 0.456175 423.6 0.629771 430.862C0.803506 438.13 1.17235 440.698 1.86466 443.462C2.61349 446.452 3.21409 448.315 4.24967 449.506C5.31719 450.733 6.78528 451.185 9.00235 451.583C9.62421 451.694 10.4213 451.971 11.2045 452.336C11.9872 452.702 12.7206 453.139 13.2232 453.554L13.5414 453.168L13.2233 453.554C14.1105 454.286 15.3886 454.645 17.4404 454.747C19.4985 454.849 22.4258 454.696 26.6924 454.32L26.6485 453.822L26.6925 454.32C29.7486 454.05 32.664 453.826 34.8986 453.682C36.0163 453.61 36.9611 453.559 37.667 453.532C38.0203 453.518 38.3105 453.511 38.5311 453.51C38.7644 453.509 38.8874 453.516 38.9277 453.522L38.9286 453.522C39.048 453.541 39.4063 453.559 39.9198 453.58C40.454 453.601 41.1994 453.627 42.1312 453.656C43.9953 453.715 46.61 453.787 49.7836 453.869C56.1308 454.031 64.716 454.23 74.0069 454.425C86.2522 454.683 94.8274 454.761 100.502 454.645C103.337 454.587 105.46 454.479 106.958 454.32C107.707 454.24 108.312 454.146 108.777 454.034C109.223 453.928 109.612 453.79 109.865 453.582C110.4 453.141 110.824 452.959 111.134 452.935C111.406 452.913 111.645 453.008 111.873 453.296L112.265 452.985L111.873 453.296C113.439 455.273 116.171 455.585 119.258 454.464C119.696 454.305 120.575 454.143 121.835 453.991C123.077 453.842 124.644 453.709 126.423 453.593C129.981 453.362 134.373 453.203 138.694 453.132C143.015 453.061 147.259 453.078 150.522 453.197C152.155 453.256 153.534 453.341 154.551 453.452C155.06 453.508 155.469 453.569 155.768 453.634C155.918 453.667 156.032 453.698 156.113 453.727C156.2 453.758 156.218 453.775 156.206 453.765C156.377 453.906 156.624 454.014 156.876 454.104C157.144 454.199 157.476 454.293 157.858 454.384C158.623 454.567 159.623 454.75 160.782 454.922C163.103 455.267 166.097 455.576 169.206 455.767C176.132 456.194 179.903 456.396 182.106 456.27C183.212 456.206 183.978 456.059 184.568 455.783C185.177 455.5 185.554 455.103 185.913 454.643C186.14 454.352 186.615 454.113 187.469 454.047C188.31 453.982 189.433 454.093 190.824 454.405C193.26 454.95 198.207 455.312 201.839 455.222C205.449 455.131 211.54 454.969 215.375 454.861C217.268 454.808 219.232 454.909 220.867 455.114C221.685 455.216 222.414 455.344 223.006 455.489C223.61 455.636 224.032 455.793 224.266 455.936L224.527 455.509L224.266 455.936C225.118 456.458 226.359 456.704 227.94 456.739C229.535 456.773 231.539 456.593 233.97 456.207L233.892 455.713L233.971 456.207C235.93 455.895 237.786 455.688 239.195 455.604C239.9 455.563 240.483 455.553 240.906 455.574C241.118 455.585 241.277 455.603 241.384 455.625C241.425 455.633 241.453 455.64 241.469 455.646C241.56 455.718 241.662 455.76 241.725 455.785C241.763 455.799 241.804 455.813 241.847 455.827C241.904 455.845 241.965 455.862 242.029 455.878C242.252 455.934 242.543 455.99 242.887 456.046C243.579 456.157 244.523 456.272 245.648 456.385C247.901 456.61 250.905 456.826 254.119 456.981C260.531 457.289 269.279 457.854 273.556 458.237C277.865 458.622 286.005 458.835 291.657 458.712C294.474 458.65 297.173 458.616 299.25 458.612C300.289 458.61 301.171 458.615 301.834 458.628C302.515 458.641 302.923 458.661 303.049 458.681C306.251 459.205 313.947 459.479 321.131 459.499C324.732 459.509 328.219 459.455 330.973 459.336C332.349 459.276 333.547 459.2 334.486 459.106C335.4 459.015 336.133 458.902 336.531 458.748C338.304 458.061 341.222 457.276 342.991 457.006C344.849 456.724 347.922 455.768 349.854 454.876L349.855 454.876C351.361 454.18 352.174 453.919 352.803 453.975C353.39 454.027 353.91 454.367 354.795 455.261C356.385 456.866 358.016 457.618 359.851 457.277C361.629 456.946 363.475 455.605 365.572 453.381C368.156 450.642 369.934 447.418 371.083 443.414C372.689 437.819 372.738 435.936 372.171 409.61C371.842 394.295 371.63 377.707 371.699 372.745C371.737 370.019 371.665 367.488 371.505 365.44C371.346 363.417 371.097 361.8 370.753 360.951C370.393 360.062 370.208 359.281 370.181 358.478C370.155 357.673 370.285 356.819 370.586 355.782L370.106 355.643L370.586 355.782C370.751 355.214 370.886 354.07 371.002 352.543C371.12 350.996 371.222 349.003 371.307 346.699C371.478 342.089 371.583 336.219 371.616 330.149C371.683 318.018 371.465 305.043 370.911 299.721C370.412 294.941 369.475 289.415 368.814 287.444C368.28 285.852 368.065 285.026 368.109 284.37C368.151 283.751 368.428 283.229 369.125 282.256C369.585 281.615 369.958 280.691 370.263 279.566C370.57 278.434 370.818 277.062 371.009 275.498C371.392 272.37 371.555 268.436 371.503 264.038C371.401 255.24 370.442 244.542 368.659 234.633C368.083 231.436 367.816 229.679 367.904 227.661C367.992 225.629 368.441 223.319 369.343 219.024C370.899 211.626 371.235 207.394 371.139 196.593C370.989 179.614 370.135 133.448 369.712 119.476C369.534 113.583 369.692 103.599 370.063 97.3015C370.451 90.7352 370.415 81.2809 369.979 75.2745C369.751 72.1421 369.636 69.3905 369.633 67.3202C369.632 66.2842 369.659 65.4263 369.712 64.7799C369.739 64.4564 369.772 64.1933 369.809 63.9913C369.848 63.7785 369.887 63.6709 369.907 63.6327L369.463 63.401L369.907 63.6325C369.967 63.5179 370.002 63.3772 370.026 63.2588C370.054 63.1273 370.078 62.9683 370.1 62.7878C370.145 62.4262 370.184 61.9506 370.219 61.3809C370.289 60.2399 370.344 58.6947 370.383 56.872C370.461 53.2251 370.48 48.4485 370.446 43.5324C370.379 33.7208 370.102 23.2857 369.662 20.1941C369.356 18.0411 369.081 16.3491 368.754 15.0291C368.427 13.7133 368.036 12.7169 367.47 11.9878C366.297 10.4776 364.506 10.2843 361.805 10.2843C360.458 10.2843 359.133 10.122 358.091 9.86495C357.569 9.73625 357.131 9.58696 356.801 9.42965C356.455 9.26458 356.292 9.12014 356.237 9.03571C356.106 8.83383 355.906 8.67734 355.699 8.55275C355.486 8.42433 355.226 8.30735 354.933 8.19959C354.347 7.98395 353.58 7.78793 352.673 7.6141C350.856 7.26585 348.423 6.99604 345.631 6.85058C335.402 6.31776 289.342 5.42533 271.96 5.4228C265.869 5.4228 250.92 5.42533 238.739 5.42912C226.563 5.43418 209.838 5.07653 201.578 4.63602L201.551 5.13531L201.578 4.63602C196.05 4.3421 192.191 4.23995 189.601 4.35136C188.308 4.40701 187.309 4.51663 186.567 4.69005C185.847 4.85849 185.271 5.1084 184.946 5.52498L184.945 5.52513C184.664 5.88511 184.188 6.14372 183.428 6.23487C182.663 6.32658 181.657 6.24166 180.395 5.95243C178.668 5.55595 175.004 5.31181 170.37 5.2227C165.716 5.13321 160.032 5.19977 154.23 5.43966L154.251 5.93924L154.23 5.43966C150.885 5.5784 134.778 4.6506 121.071 3.5259C116.773 3.17224 103.251 2.48048 91.0237 1.9863L91.0035 2.4859L91.0237 1.9863C82.3469 1.63626 76.7365 1.49728 73.2314 1.60074C71.4828 1.65235 70.2294 1.76478 69.3719 1.95047C68.9435 2.04324 68.587 2.15977 68.3091 2.31281C68.0292 2.46699 67.7932 2.67882 67.6745 2.97466C67.6134 3.1268 67.5595 3.24907 67.512 3.34574C67.447 3.21844 67.3721 3.05007 67.2853 2.83344C67.0829 2.32764 66.6328 1.97828 66.0183 1.72169C65.4037 1.46505 64.5528 1.27041 63.4247 1.11551C61.1638 0.805095 57.6534 0.637851 52.3737 0.534878C48.5778 0.460755 44.9408 0.508177 42.1371 0.644873C40.7361 0.713177 39.5364 0.804083 38.6262 0.914364C38.1718 0.969427 37.7815 1.03026 37.4708 1.09745C37.1804 1.16025 36.8964 1.24083 36.7031 1.36225C36.6522 1.39405 36.5397 1.44364 36.3407 1.49884C36.1486 1.55211 35.9035 1.60327 35.608 1.6505C35.0174 1.7449 34.2543 1.81918 33.3685 1.86864C31.5982 1.96749 29.3698 1.96555 27.1149 1.83754C21.1334 1.49799 17.735 1.89332 15.0391 3.35866ZM241.427 455.609L241.427 455.609L241.427 455.609Z" stroke="white" stroke-opacity="0.25"/>
</svg>
